<svg viewBox="0 0 48 48" fill="currentColor">
	<path
		d="M17.13,46.186c-4.172,0-8.346-1.725-11.342-5.177C0.582,35.013,1.2,25.909,6.814,20.295L21.852,5.257
					C25.9,1.209,32.442,0.664,36.851,4.315c5.059,4.189,5.321,11.734,0.785,16.271L23.68,34.541c-1.213,1.213-2.786,2.057-4.494,2.209
					c-2.107,0.187-4.12-0.55-5.592-2.022c-1.472-1.472-2.208-3.485-2.021-5.592c0.151-1.708,0.996-3.281,2.209-4.494l12.541-12.541
					c0.391-0.391,1.024-0.391,1.414,0l1.414,1.414c0.391,0.391,0.391,1.024,0,1.414L16.423,27.656c-0.566,0.567-0.879,1.32-0.879,2.122
					c0,0.801,0.312,1.555,0.879,2.12c1.133,1.136,3.108,1.133,4.243,0.001l13.973-13.973c2.514-2.514,2.955-6.56,0.781-9.374
					c-2.631-3.406-7.564-3.64-10.511-0.695L9.352,23.414c-2.077,2.078-3.222,4.84-3.222,7.778c0,3.071,1.25,5.949,3.509,8.056
					c4.374,4.079,11.289,3.703,15.518-0.526l18.136-18.136c0.391-0.391,1.024-0.391,1.414,0L46.121,22c0.391,0.391,0.391,1.024,0,1.414
					L27.736,41.799C24.812,44.724,20.971,46.186,17.13,46.186z"
	/>
</svg>
