<svg viewBox="0 0 48 48" fill="currentColor">
	<path
		d="M44,7H21c-0.6,0-1,0.4-1,1s0.4,1,1,1h23c0.6,0,1-0.4,1-1S44.6,7,44,7z"
	/>
	<path
		d="M44,23H21c-0.6,0-1,0.4-1,1s0.4,1,1,1h23c0.6,0,1-0.4,1-1S44.6,23,44,23z"
	/>
	<path
		d="M44,39H21c-0.6,0-1,0.4-1,1s0.4,1,1,1h23c0.6,0,1-0.4,1-1S44.6,39,44,39z"
	/>
	<path
		d="M4,2h10c0.6,0,1,0.4,1,1v10c0,0.6-0.4,1-1,1H4c-0.6,0-1-0.4-1-1V3C3,2.4,3.4,2,4,2z"
	/>
	<path
		d="M4,34h10c0.6,0,1,0.4,1,1v10c0,0.6-0.4,1-1,1H4c-0.6,0-1-0.4-1-1V35C3,34.4,3.4,34,4,34z"
	/>
	<path
		d="M14.2,18.4l-6.3,8.1l-3.2-3.2c-0.4-0.4-1-0.4-1.4,0c-0.4,0.4-0.4,1,0,1.4l4,4C7.5,28.9,7.7,29,8,29h0.1c0.3,0,0.6-0.2,0.7-0.4l7-9c0.3-0.4,0.3-1.1-0.1-1.4C15.2,17.9,14.6,17.9,14.2,18.4C14.2,18.4,14.2,18.4,14.2,18.4L14.2,18.4z"
	/>
</svg>
