<svg viewBox="-273 396.9 48 48" fill="currentColor">
	<path
		d="M-229,443.4h-40c-0.8,0-1.5-0.7-1.5-1.5s0.7-1.5,1.5-1.5h40c0.8,0,1.5,0.7,1.5,1.5S-228.2,443.4-229,443.4z"
	/>
	<path
		d="M-243,427.4c-0.4,0-0.8-0.1-1.1-0.4l-14-14c-0.6-0.6-0.6-1.5,0-2.1c0.6-0.6,1.5-0.6,2.1,0l14,14c0.6,0.6,0.6,1.5,0,2.1C-242.2,427.2-242.6,427.4-243,427.4z"
	/>
	<path
		d="M-256,438.7c-1.4,0-2.8-0.5-3.9-1.6l0,0l-8.3-8.3c-1-1-1.6-2.4-1.6-3.9c0-1.5,0.6-2.9,1.6-3.9l22-22
						c1-1,2.4-1.6,3.9-1.6c1.5,0,2.9,0.6,3.9,1.6l8.3,8.3c2.1,2.1,2.1,5.6,0,7.8l-22,22C-253.2,438.2-254.6,438.7-256,438.7z
						M-257.8,435c1,1,2.6,1,3.5,0l22-22c1-1,1-2.6,0-3.5l-8.3-8.3c-0.9-0.9-2.6-0.9-3.5,0l-22,22c-0.5,0.5-0.7,1.1-0.7,1.8s0.3,1.3,0.7,1.8L-257.8,435z"
	/>
</svg>
