<svg viewBox="0 0 48 48" fill="currentColor">
	<path
		d="M24,32.5c-4.7,0-8.5-3.8-8.5-8.5c0-4.7,3.8-8.5,8.5-8.5c4.7,0,8.5,3.8,8.5,8.5C32.5,28.7,28.7,32.5,24,32.5zM24,18.5c-3,0-5.5,2.5-5.5,5.5c0,3,2.5,5.5,5.5,5.5c3,0,5.5-2.5,5.5-5.5C29.5,21,27,18.5,24,18.5z"
	/>
	<path
		d="M24,47.5c-2.5,0-4.5-1.9-4.7-4.4l-0.2-2.4c-1.2-0.4-2.3-0.8-3.4-1.4l-1.8,1.5c-1.9,1.6-4.7,1.5-6.4-0.3c-1.7-1.7-1.9-4.6-0.3-6.4l1.5-1.8c-0.6-1.1-1.1-2.2-1.4-3.4l-2.4-0.2c-2.4-0.2-4.4-2.3-4.4-4.7c0-2.5,1.9-4.5,4.4-4.7l2.4-0.2c0.4-1.2,0.8-2.3,1.4-3.4l-1.5-1.8c-1.6-1.9-1.5-4.7,0.3-6.4c1.7-1.7,4.6-1.9,6.4-0.3l1.8,1.5c1.1-0.6,2.2-1.1,3.4-1.4l0.2-2.4c0.2-2.4,2.3-4.4,4.7-4.4c2.5,0,4.5,1.9,4.7,4.4l0.2,2.4c1.2,0.4,2.3,0.8,3.4,1.4l1.8-1.5c1.9-1.6,4.7-1.5,6.4,0.3c1.7,1.7,1.9,4.6,0.3,6.4l-1.5,1.8c0.6,1.1,1.1,2.2,1.4,3.4l2.4,0.2c2.4,0.2,4.4,2.3,4.4,4.7c0,2.5-1.9,4.5-4.4,4.7l-2.4,0.2c-0.4,1.2-0.8,2.3-1.4,3.4l1.5,1.8c1.6,1.9,1.5,4.7-0.3,6.4c-1.7,1.7-4.6,1.9-6.4,0.3l-1.8-1.5c-1.1,0.6-2.2,1.1-3.4,1.4l-0.2,2.4C28.5,45.6,26.5,47.5,24,47.5z
					M15.5,36c0.3,0,0.6,0.1,0.8,0.2c1.4,0.9,2.9,1.5,4.5,1.9c0.6,0.1,1.1,0.7,1.2,1.3l0.3,3.4c0.1,0.9,0.8,1.6,1.8,1.6c0.9,0,1.7-0.7,1.8-1.6l0.3-3.4c0.1-0.7,0.5-1.2,1.2-1.3c1.6-0.4,3.1-1,4.5-1.9c0.6-0.4,1.3-0.3,1.8,0.1l2.6,2.2c0.7,0.6,1.7,0.5,2.4-0.1c0.6-0.6,0.7-1.7,0.1-2.4l-2.2-2.6c-0.4-0.5-0.5-1.2-0.1-1.8c0.9-1.4,1.5-2.9,1.9-4.5c0.1-0.6,0.7-1.1,1.3-1.2l3.4-0.3c0.9-0.1,1.6-0.8,1.6-1.8c0-0.9-0.7-1.7-1.6-1.8L39.5,22c-0.7-0.1-1.2-0.5-1.3-1.2c-0.4-1.6-1-3.1-1.9-4.5c-0.4-0.6-0.3-1.3,0.1-1.8l2.2-2.6c0.6-0.7,0.5-1.7-0.1-2.4c-0.6-0.6-1.7-0.7-2.4-0.1l-2.6,2.2c-0.5,0.4-1.2,0.5-1.8,0.1c-1.4-0.9-2.9-1.5-4.5-1.9c-0.6-0.1-1.1-0.7-1.2-1.3l-0.3-3.4c-0.1-0.9-0.8-1.6-1.8-1.6c-0.9,0-1.7,0.7-1.8,1.6L22,8.5c-0.1,0.7-0.5,1.2-1.2,1.3c-1.6,0.4-3.1,1-4.5,1.9c-0.6,0.3-1.3,0.3-1.8-0.1l-2.6-2.2c-0.7-0.6-1.7-0.5-2.4,0.1c-0.6,0.6-0.7,1.7-0.1,2.4l2.2,2.6c0.4,0.5,0.5,1.2,0.1,1.8c-0.9,1.4-1.5,2.9-1.9,4.5c-0.1,0.6-0.7,1.1-1.3,1.2l-3.4,0.3c-0.9,0.1-1.6,0.8-1.6,1.8c0,0.9,0.7,1.7,1.6,1.8L8.5,26c0.7,0.1,1.2,0.5,1.3,1.2c0.4,1.6,1,3.1,1.9,4.5c0.4,0.6,0.3,1.3-0.1,1.8l-2.2,2.6c-0.6,0.7-0.5,1.7,0.1,2.4s1.7,0.7,2.4,0.1l2.6-2.2C14.8,36.1,15.1,36,15.5,36z"
	/>
</svg>
