<svg viewBox="0 0 48 48" fill="currentColor">
	<path
		d="M19.6,1.9c1.9,0.6,3.1,2,4.6,3.4c-0.3,0-0.5,0-0.7,0c-1,0.1-2.1,0.2-3.1,0.3c-0.1,0-0.3,0-0.3,0c-0.4-0.4-0.9-0.3-1.4-0.3c-3.2,0-6.3,0-9.5,0c-2.2,0-3.6,1.4-3.6,3.6c0,7.6,0,15.3,0,22.9c0,2.3,1.4,3.6,3.6,3.6c1.4,0,2.8,0,4.2,0c0.2,0,0.3,0,0.5,0c0,1.1,0,2.2,0,3.4c-0.2,0-0.3,0-0.5,0c-1.5,0-3,0-4.4,0c-3.8,0-6.8-3-6.8-6.8c0-7.8,0-15.5,0-23.3C2.3,5.3,4.6,2.6,8,2c0.1,0,0.2-0.1,0.2-0.1C12,1.9,15.8,1.9,19.6,1.9z"
	/>
	<path
		d="M15.8,26.2c0-4.2,0-8.3,0-12.5c0-3.2,2.1-5.8,5.1-6.6c0.6-0.1,1.2-0.2,1.8-0.2c2.9,0,5.8,0.1,8.7,0c1.9-0.1,3.3,0.6,4.6,1.8c2,1.9,8.1,8.1,9.1,9.3c0.7,0.8,0.9,1.8,0.9,2.8c0,5.9,0,11.8,0,17.7c0,2.4-0.9,4.3-2.9,5.7c-1.2,0.8-2.5,1.2-3.9,1.2c-5.6,0-11.1,0-16.7,0c-3.9,0-6.8-3-6.8-6.9C15.8,34.5,15.8,30.3,15.8,26.2z
						M19.1,26.2c0,4.1,0,8.2,0,12.2c0,2.3,1.4,3.7,3.7,3.7c5.4,0,10.8,0,16.1,0c2.3,0,3.7-1.4,3.7-3.6c0-6,0-12,0-17.9c0-1.2-0.5-1.8-1.7-1.8c-1.6-0.1-3.2-0.1-4.8-0.1c-1.3,0-1.9-0.7-1.9-2c0-1.4,0-2.8,0-4.3c0-0.4-0.1-0.8-0.2-1.2c-0.2-0.7-0.6-1-1.3-1c-3.3,0-6.6,0-10,0c-2.2,0-3.6,1.4-3.6,3.7C19.1,18,19.1,22.1,19.1,26.2z"
	/>
	<path
		d="M33,25.7c-0.9-0.2-1.7-0.3-2.6-0.4c0.8-0.8,1.7-1.7,2.6-2.4c1.7-1.2,3.9-0.8,5.1,0.7c1.3,1.5,1.3,3.7-0.2,5.2c-1.4,1.5-2.8,2.9-4.3,4.3c-1.5,1.4-3.9,1.4-5.3,0.1c-0.5-0.5-0.6-1.1-0.2-1.5c0.4-0.4,1-0.5,1.5-0.1c0.9,0.7,1.8,0.7,2.6-0.1c1.4-1.3,2.8-2.7,4.2-4.1c0.8-0.8,0.7-1.9,0-2.6c-0.7-0.7-1.8-0.7-2.6,0C33.6,25.1,33.2,25.4,33,25.7z"
	/>
	<path
		d="M28.5,35.4c0.9,0.1,1.7,0.3,2.5,0.4c-1,0.9-1.8,2.2-3.3,2.7c-1.7,0.5-3.4-0.1-4.4-1.5c-1-1.4-1-3.3,0.3-4.6c1.5-1.6,3-3.1,4.7-4.6c1.4-1.2,3.6-1,4.9,0.2c0.5,0.5,0.6,1,0.2,1.5c-0.4,0.5-1,0.6-1.5,0.1c-0.8-0.7-2-0.7-2.8,0.2c-1.2,1.2-2.5,2.4-3.7,3.6c-0.9,0.9-0.8,2.3,0.1,2.9c0.7,0.5,1.7,0.4,2.4-0.3C28.1,35.8,28.4,35.5,28.5,35.4z"
	/>
</svg>
