<svg viewBox="0 0 286 30" fill="currentColor">
	<path
		d="M0.0666528 28.2483C0.0666528 27.7817 0.0999792 27.3873 0.166632 27.0652C0.233285 26.743 0.272166 26.5931 0.283274 26.6153C0.305492 25.4044 0.322155 24.1769 0.333264 22.9327C0.355481 21.6885 0.36659 20.3721 0.36659 18.9835C0.36659 18.1059 0.36659 17.1561 0.36659 16.1341C0.36659 15.101 0.355481 14.0623 0.333264 13.0181C0.322155 11.9628 0.299937 10.9297 0.266611 9.91877C0.233285 8.89676 0.18885 7.95251 0.133306 7.08602C0.0888704 6.83052 0.055544 6.60279 0.0333264 6.40283C0.0111088 6.19177 0 5.96959 0 5.7363C0 5.19197 0.116642 4.76429 0.349927 4.45324C0.583212 4.13108 0.960911 3.90891 1.48302 3.78671C1.7052 3.59786 1.94959 3.47011 2.2162 3.40346C2.49392 3.3257 2.76054 3.28682 3.01604 3.28682C3.28265 3.28682 3.52149 3.36458 3.73256 3.5201C3.95473 3.67562 4.14914 3.85892 4.31577 4.06999C4.4824 4.28105 4.62126 4.50323 4.73235 4.73651C4.84344 4.95869 4.9212 5.14198 4.96563 5.2864C5.31 5.7974 5.72103 6.38061 6.19871 7.03603C6.6875 7.69145 7.21516 8.39686 7.78171 9.15226C8.35937 9.89655 8.97035 10.6797 9.61466 11.5018C10.259 12.3127 10.9088 13.1348 11.5643 13.9679C12.2308 14.8011 12.8918 15.6342 13.5472 16.4674C14.2026 17.2895 14.8247 18.0837 15.4135 18.8502C16.0022 19.6167 16.5521 20.3444 17.0631 21.0331C17.5741 21.7108 18.0129 22.3217 18.3795 22.8661C18.3795 20.4888 18.3684 18.4448 18.3462 16.734C18.3351 15.0121 18.3184 13.5513 18.2962 12.3516C18.274 11.1407 18.2462 10.1465 18.2129 9.36888C18.1795 8.59127 18.1518 7.94696 18.1296 7.43595C18.1073 6.92495 18.0851 6.50837 18.0629 6.18621C18.0518 5.85295 18.0462 5.53635 18.0462 5.23641C18.0462 4.79206 18.0907 4.43102 18.1795 4.1533C18.2795 3.86447 18.4128 3.6423 18.5795 3.48677C18.7572 3.33125 18.9738 3.22572 19.2293 3.17017C19.4848 3.11463 19.7792 3.08686 20.1125 3.08686C20.5457 3.08686 20.8845 3.17573 21.1289 3.35347C21.3733 3.53121 21.5566 3.75894 21.6788 4.03666C21.8121 4.30327 21.8899 4.60876 21.9121 4.95313C21.9454 5.2864 21.9621 5.61411 21.9621 5.93626V25.0489C21.9621 25.4489 21.9843 25.8543 22.0287 26.2654C22.0732 26.6653 22.0954 27.093 22.0954 27.5484C22.0954 27.9817 22.0621 28.3427 21.9954 28.6315C21.9288 28.9093 21.8177 29.137 21.6622 29.3147C21.5177 29.4925 21.3233 29.6147 21.0789 29.6813C20.8457 29.7591 20.5624 29.798 20.2291 29.798C19.607 29.798 19.1071 29.6424 18.7294 29.3314C18.3628 29.0203 18.1018 28.6426 17.9463 28.1983C16.8909 26.7541 15.8189 25.3322 14.7303 23.9325C13.6527 22.5217 12.564 21.1164 11.4643 19.7167C10.3645 18.3059 9.25918 16.8895 8.1483 15.4676C7.03742 14.0346 5.9321 12.5793 4.83233 11.1019L3.83253 9.53551C3.84364 11.2352 3.85475 12.7515 3.86586 14.0846C3.87697 15.4065 3.88808 16.5896 3.89919 17.6338C3.9103 18.6669 3.92141 19.5834 3.93251 20.3833C3.94362 21.172 3.94918 21.8829 3.94918 22.5161C3.96029 23.1382 3.96584 23.7103 3.96584 24.2325C3.97695 24.7435 3.9825 25.2434 3.9825 25.7321C3.99361 26.021 4.01028 26.332 4.03249 26.6653C4.06582 26.9874 4.08248 27.304 4.08248 27.6151C4.08248 27.9039 4.05471 28.1816 3.99917 28.4482C3.95473 28.7148 3.86031 28.9481 3.71589 29.1481C3.57148 29.3481 3.36597 29.5036 3.09935 29.6147C2.84385 29.7369 2.50503 29.798 2.0829 29.798C1.51635 29.798 1.03867 29.6591 0.649865 29.3814C0.261057 29.1037 0.0666528 28.726 0.0666528 28.2483Z"
	/>
	<path
		d="M27.311 19.3168C27.311 17.806 27.5665 16.4007 28.0775 15.101C28.5885 13.8013 29.2883 12.6737 30.177 11.7184C31.0769 10.763 32.1266 10.0132 33.3264 9.46886C34.5372 8.92453 35.8425 8.65236 37.2422 8.65236C37.9532 8.65236 38.6308 8.73568 39.2751 8.90231C39.9306 9.06894 40.536 9.29112 41.0914 9.56884C41.658 9.83545 42.1634 10.1409 42.6078 10.4853C43.0632 10.8297 43.4521 11.1852 43.7742 11.5518C43.7631 11.3962 43.7575 11.2296 43.7575 11.0519C43.7575 10.8741 43.7575 10.7186 43.7575 10.5853C43.7575 10.3076 43.7964 10.0521 43.8742 9.81879C43.952 9.57439 44.0741 9.36333 44.2408 9.18559C44.4074 9.00785 44.6185 8.86899 44.874 8.76901C45.1295 8.65792 45.4405 8.60237 45.8071 8.60237C46.1182 8.60237 46.3959 8.66347 46.6403 8.78567C46.8958 8.89676 47.1124 9.04117 47.2901 9.21891C47.4679 9.38554 47.6067 9.56884 47.7067 9.7688C47.8067 9.95765 47.8567 10.1298 47.8567 10.2854C47.8567 10.6631 47.8345 11.0463 47.79 11.4351C47.7567 11.8128 47.7289 12.1961 47.7067 12.5849C47.7067 13.8068 47.6956 14.89 47.6734 15.8342C47.6623 16.7673 47.6456 17.6283 47.6234 18.417C47.6012 18.9502 47.5845 19.5057 47.5734 20.0833C47.5623 20.6499 47.5568 21.172 47.5568 21.6497C47.5568 22.7272 47.5568 23.5826 47.5568 24.2158C47.5568 24.849 47.5845 25.31 47.6401 25.5988C47.7401 25.5766 47.8845 25.5266 48.0733 25.4489C48.2733 25.3711 48.4566 25.2878 48.6232 25.1989C48.7787 25.1434 48.9342 25.0878 49.0898 25.0323C49.2453 24.9767 49.4397 24.949 49.673 24.949C49.9396 24.949 50.1729 25.0101 50.3728 25.1323C50.5728 25.2434 50.7394 25.3933 50.8727 25.5822C51.0171 25.7599 51.1227 25.9654 51.1893 26.1987C51.256 26.4209 51.2893 26.6375 51.2893 26.8486C51.2893 27.1485 51.2171 27.454 51.0727 27.765C50.9283 28.065 50.6617 28.2816 50.2729 28.4149C49.9396 28.5371 49.6008 28.6649 49.2564 28.7982C48.912 28.9315 48.5621 29.0537 48.2066 29.1648C47.8622 29.2758 47.5123 29.3703 47.1568 29.448C46.8125 29.5258 46.457 29.5647 46.0904 29.5647C45.6572 29.5647 45.3017 29.4758 45.024 29.2981C44.7462 29.1203 44.5296 28.8926 44.3741 28.6149C44.2186 28.326 44.1075 28.0094 44.0408 27.6651C43.9742 27.3207 43.9353 26.9819 43.9242 26.6486C43.5798 27.0819 43.1632 27.4873 42.6744 27.865C42.1857 28.2427 41.6469 28.576 41.0581 28.8648C40.4693 29.1536 39.8361 29.3814 39.1585 29.548C38.492 29.7146 37.8032 29.798 37.0923 29.798C35.6481 29.798 34.3262 29.5369 33.1264 29.0148C31.9267 28.4816 30.8936 27.7484 30.0271 26.8152C29.1717 25.871 28.5052 24.7601 28.0275 23.4826C27.5498 22.2051 27.311 20.8165 27.311 19.3168ZM31.1435 19.3168C31.1435 20.2166 31.2768 21.0831 31.5434 21.9163C31.8211 22.7494 32.2155 23.4882 32.7265 24.1325C33.2486 24.7657 33.8874 25.2711 34.6428 25.6488C35.3982 26.0265 36.2536 26.2154 37.2089 26.2154C38.1532 26.2154 39.0085 26.0321 39.775 25.6655C40.5416 25.2989 41.2081 24.8212 41.7746 24.2325C42.3523 23.6437 42.8244 22.9883 43.191 22.2662C43.5576 21.533 43.8075 20.7998 43.9408 20.0667V18.6003C43.8186 17.9227 43.5854 17.2061 43.241 16.4507C42.9077 15.6953 42.4634 15.001 41.9079 14.3678C41.3636 13.7235 40.7082 13.1959 39.9417 12.7848C39.1752 12.3627 38.3087 12.1516 37.3422 12.1516C36.4313 12.1516 35.5981 12.3405 34.8427 12.7182C34.0873 13.0848 33.4319 13.5958 32.8765 14.2512C32.3322 14.8955 31.9045 15.6509 31.5934 16.5174C31.2935 17.3839 31.1435 18.317 31.1435 19.3168Z"
	/>
	<path
		d="M54.0054 24.999C54.0054 24.7435 54.0665 24.5102 54.1887 24.2991C54.3109 24.088 54.4609 23.9103 54.6386 23.7659C54.8275 23.6104 55.033 23.4937 55.2552 23.416C55.4773 23.3271 55.694 23.2826 55.905 23.2826C56.1605 23.2826 56.3771 23.3104 56.5549 23.366C56.7326 23.4215 56.8881 23.4993 57.0215 23.5992C57.1548 23.6992 57.2714 23.8159 57.3714 23.9492C57.4714 24.0825 57.5769 24.2269 57.688 24.3824C58.1323 25.0489 58.7822 25.5655 59.6376 25.9321C60.493 26.2876 61.6094 26.4653 62.9869 26.4653C63.5534 26.4653 64.0866 26.4153 64.5865 26.3153C65.0975 26.2154 65.5419 26.0654 65.9196 25.8654C66.3084 25.6655 66.6139 25.4211 66.8361 25.1323C67.0694 24.8434 67.186 24.5102 67.186 24.1325C67.186 23.6215 67.036 23.1882 66.7361 22.8327C66.4473 22.4773 66.0585 22.1718 65.5697 21.9163C65.092 21.6608 64.5477 21.4441 63.9367 21.2664C63.3257 21.0887 62.698 20.9165 62.0537 20.7498C61.465 20.6054 60.8706 20.4499 60.2708 20.2833C59.6709 20.1055 59.0877 19.9056 58.5211 19.6834C57.9546 19.4501 57.4214 19.1779 56.9215 18.8669C56.4327 18.5447 56.005 18.167 55.6384 17.7338C55.2718 17.3006 54.9774 16.8007 54.7553 16.2341C54.5442 15.6565 54.4387 14.9955 54.4387 14.2512C54.4387 13.2514 54.6719 12.4071 55.1385 11.7184C55.6162 11.0185 56.2272 10.452 56.9715 10.0187C57.7269 9.5855 58.5656 9.27446 59.4876 9.08561C60.4096 8.88565 61.315 8.78567 62.2037 8.78567C62.7147 8.78567 63.1813 8.81344 63.6034 8.86899C64.0255 8.92453 64.4199 8.99674 64.7865 9.08561C65.1531 9.17448 65.503 9.28557 65.8363 9.41887C66.1695 9.54107 66.5028 9.66882 66.8361 9.80212C66.8805 9.63549 66.9472 9.46886 67.036 9.30223C67.136 9.12449 67.2527 8.96896 67.386 8.83566C67.5193 8.69124 67.6748 8.5746 67.8525 8.48573C68.0303 8.39686 68.2302 8.35243 68.4524 8.35243C68.9967 8.35243 69.4189 8.45796 69.7188 8.66903C70.0187 8.88009 70.1687 9.25224 70.1687 9.78546C70.1687 10.2076 70.152 10.6464 70.1187 11.1019C70.0854 11.5573 70.0687 12.0572 70.0687 12.6015C70.1243 12.7348 70.1632 12.8848 70.1854 13.0514C70.2076 13.207 70.2187 13.3458 70.2187 13.468C70.2187 13.7346 70.1743 13.9624 70.0854 14.1512C69.9965 14.329 69.8743 14.4789 69.7188 14.6011C69.5633 14.7122 69.38 14.7955 69.1689 14.8511C68.969 14.9066 68.7468 14.9344 68.5024 14.9344C68.2802 14.9344 68.0636 14.8955 67.8525 14.8177C67.6526 14.74 67.4693 14.64 67.3026 14.5178C67.136 14.3845 66.9916 14.2345 66.8694 14.0679C66.7472 13.9013 66.6528 13.7291 66.5861 13.5513C66.4084 13.4069 66.1807 13.2459 65.9029 13.0681C65.6363 12.8793 65.3142 12.7071 64.9365 12.5516C64.5699 12.396 64.1477 12.2683 63.6701 12.1683C63.1924 12.0572 62.6647 12.0017 62.0871 12.0017C61.5205 12.0017 60.9928 12.0572 60.5041 12.1683C60.0264 12.2683 59.6098 12.4182 59.2543 12.6182C58.9099 12.8182 58.6378 13.057 58.4378 13.3347C58.2379 13.6124 58.1379 13.9235 58.1379 14.2679C58.1379 14.7122 58.2712 15.0955 58.5378 15.4176C58.8155 15.7287 59.1821 16.0064 59.6376 16.2508C60.093 16.4841 60.6207 16.6951 61.2206 16.884C61.8316 17.0728 62.4648 17.2561 63.1202 17.4339C64.02 17.6783 64.9254 17.9504 65.8363 18.2504C66.7583 18.5503 67.5859 18.9391 68.3191 19.4168C69.0634 19.8834 69.6688 20.4777 70.1354 21.1997C70.602 21.9107 70.8352 22.805 70.8352 23.8825C70.8352 24.7157 70.7075 25.4378 70.452 26.0487C70.1965 26.6597 69.8577 27.1874 69.4355 27.6317C69.0134 28.065 68.5191 28.426 67.9525 28.7148C67.3971 28.9926 66.8139 29.2092 66.2029 29.3647C65.603 29.5313 64.992 29.6424 64.3699 29.698C63.7478 29.7646 63.1591 29.798 62.6036 29.798C61.826 29.798 61.0762 29.7258 60.3541 29.5813C59.632 29.4369 58.9488 29.2425 58.3045 28.9981C57.6713 28.7537 57.0881 28.4705 56.5549 28.1483C56.0328 27.8261 55.5829 27.4873 55.2052 27.1318C54.8275 26.7764 54.5331 26.4153 54.322 26.0487C54.1109 25.6821 54.0054 25.3322 54.0054 24.999Z"
	/>
	<path
		d="M80.8332 6.35284C80.5665 6.47504 80.2888 6.53614 80 6.53614C79.7112 6.52503 79.4446 6.46393 79.2002 6.35284C78.9669 6.23065 78.7614 6.05846 78.5836 5.83628C78.4059 5.61411 78.2948 5.3475 78.2504 5.03645C78.217 4.82538 78.2226 4.58654 78.267 4.31993C78.3226 4.04221 78.3892 3.76449 78.467 3.48677C78.5559 3.19794 78.6336 2.92022 78.7003 2.65361C78.778 2.37589 78.828 2.12595 78.8502 1.90377C78.8836 1.40387 79.0335 0.987294 79.3001 0.65403C79.5668 0.320766 79.9667 0.115254 80.4999 0.0374922C80.8887 -0.0291606 81.2553 -0.006943 81.5997 0.104145C81.944 0.215233 82.1995 0.459626 82.3662 0.837326C82.4217 0.959522 82.4661 1.10394 82.4995 1.27057C82.5439 1.42609 82.5772 1.56495 82.5995 1.68715C82.6106 1.79824 82.605 1.9371 82.5828 2.10373C82.5717 2.27036 82.5439 2.4481 82.4995 2.63695C82.455 2.81469 82.3995 2.99799 82.3328 3.18684C82.2773 3.36458 82.2218 3.5201 82.1662 3.65341C82.0773 3.84225 82.0162 4.04777 81.9829 4.26994C81.9607 4.48101 81.9329 4.67541 81.8996 4.85316C81.8663 5.0309 81.8329 5.19197 81.7996 5.33639C81.7663 5.4808 81.7108 5.61411 81.633 5.7363C81.5663 5.8585 81.4664 5.96959 81.3331 6.06957C81.2109 6.16955 81.0442 6.26397 80.8332 6.35284ZM77.9837 28.065C77.9837 27.7873 77.9949 27.554 78.0171 27.3651C78.0504 27.1763 78.0782 26.9708 78.1004 26.7486C78.1337 26.5153 78.1615 26.2431 78.1837 25.9321C78.217 25.621 78.2337 25.1989 78.2337 24.6657C78.2337 22.6772 78.2281 20.7054 78.217 18.7503C78.2059 16.784 78.1782 14.7067 78.1337 12.5182C77.9671 12.5293 77.7782 12.5404 77.5672 12.5516C77.3561 12.5627 77.1339 12.5738 76.9006 12.5849C76.6785 12.5849 76.4618 12.5904 76.2508 12.6015C76.0397 12.6015 75.8509 12.6015 75.6842 12.6015C75.4843 12.6015 75.2788 12.5738 75.0677 12.5182C74.8677 12.4516 74.6844 12.346 74.5178 12.2016C74.3512 12.0572 74.2123 11.8739 74.1012 11.6517C73.9901 11.4185 73.9346 11.1352 73.9346 10.8019C73.9346 10.2131 74.0901 9.7688 74.4012 9.46886C74.7233 9.15781 75.101 9.00229 75.5343 9.00229C75.9564 9.00229 76.373 9.02451 76.784 9.06894C77.2061 9.10227 77.6172 9.11893 78.0171 9.11893C78.4281 9.11893 78.8391 9.10227 79.2502 9.06894C79.6612 9.02451 80.05 9.00229 80.4166 9.00229C80.9831 9.00229 81.3886 9.15226 81.633 9.4522C81.8774 9.75213 81.9996 10.1687 81.9996 10.7019C81.9996 11.1574 81.9607 11.6073 81.8829 12.0517C81.8052 12.4849 81.7663 12.9515 81.7663 13.4514C81.7663 14.4512 81.7607 15.4565 81.7496 16.4674C81.7385 17.4783 81.7274 18.5059 81.7163 19.5501C81.7163 20.5943 81.7108 21.6608 81.6996 22.7494C81.6996 23.8381 81.7108 24.9601 81.733 26.1154C81.9107 26.1043 82.0718 26.0765 82.2162 26.0321C82.3606 25.9876 82.4995 25.9432 82.6328 25.8988C82.7661 25.8432 82.9049 25.7988 83.0494 25.7655C83.2049 25.721 83.3771 25.6988 83.5659 25.6988C83.8547 25.6988 84.088 25.7321 84.2658 25.7988C84.4546 25.8654 84.6046 25.9599 84.7157 26.0821C84.8268 26.1932 84.9101 26.3376 84.9656 26.5153C85.0212 26.6819 85.0712 26.8652 85.1156 27.0652C85.1934 27.5873 85.0656 28.0039 84.7323 28.3149C84.3991 28.626 83.9436 28.8704 83.366 29.0481C83.0327 29.137 82.6883 29.2259 82.3328 29.3147C81.9885 29.4036 81.6608 29.4814 81.3497 29.548C81.0387 29.6258 80.7554 29.6869 80.4999 29.7313C80.2444 29.7757 80.0444 29.798 79.9 29.798C79.2446 29.798 78.7614 29.6424 78.4503 29.3314C78.1393 29.0315 77.9837 28.6093 77.9837 28.065Z"
	/>
	<path
		d="M91.3976 28.0983C91.3976 27.5318 91.4365 26.9763 91.5143 26.432C91.6031 25.8877 91.6476 25.31 91.6476 24.699C91.6476 24.2436 91.642 23.7937 91.6309 23.3493C91.6309 22.9049 91.6254 22.4328 91.6142 21.9329C91.6142 21.433 91.6087 20.8887 91.5976 20.2999C91.5865 19.7001 91.5698 19.0224 91.5476 18.267C91.5365 17.5116 91.5198 16.6563 91.4976 15.7009C91.4754 14.7455 91.4532 13.6513 91.4309 12.4182C91.2865 12.4405 91.1199 12.4627 90.9311 12.4849C90.7533 12.496 90.5256 12.5016 90.2479 12.5016C90.0479 12.5016 89.8424 12.4682 89.6313 12.4016C89.4203 12.3349 89.2314 12.235 89.0648 12.1016C88.8981 11.9572 88.7593 11.7739 88.6482 11.5518C88.5371 11.3185 88.4816 11.0352 88.4816 10.7019C88.4816 10.1021 88.6371 9.65216 88.9481 9.35222C89.2592 9.04117 89.6369 8.88565 90.0812 8.88565C90.259 8.88565 90.4312 8.90787 90.5978 8.9523C90.7644 8.99674 90.9422 9.01895 91.131 9.01895C91.5754 9.01895 92.0142 8.99674 92.4474 8.9523C92.8918 8.90787 93.3583 8.88565 93.8471 8.88565C94.3248 8.88565 94.6525 9.03562 94.8302 9.33555C95.0191 9.63549 95.1135 10.0576 95.1135 10.602V10.9352C95.9911 10.202 96.9187 9.66326 97.8963 9.31889C98.8738 8.96341 99.7848 8.78567 100.629 8.78567C102.018 8.78567 103.251 8.98563 104.328 9.38554C105.406 9.78546 106.322 10.3798 107.078 11.1685C107.544 10.7908 108.033 10.452 108.544 10.1521C109.055 9.85211 109.566 9.60217 110.077 9.40221C110.599 9.20225 111.11 9.05228 111.61 8.9523C112.11 8.84121 112.588 8.78567 113.043 8.78567C114.443 8.78567 115.715 8.99674 116.859 9.41887C118.003 9.8299 118.981 10.4409 119.792 11.2518C120.614 12.0628 121.247 13.0626 121.691 14.2512C122.136 15.4287 122.358 16.7896 122.358 18.3337C122.358 18.8225 122.325 19.3779 122.258 20C122.202 20.611 122.119 21.2442 122.008 21.8996C121.897 22.5439 121.764 23.1827 121.608 23.8159C121.452 24.438 121.286 24.999 121.108 25.4989C121.253 25.4544 121.369 25.4266 121.458 25.4155C121.547 25.4044 121.625 25.3989 121.691 25.3989C122.08 25.3989 122.391 25.4711 122.624 25.6155C122.858 25.7599 123.035 25.9321 123.158 26.1321C123.291 26.332 123.374 26.5431 123.408 26.7653C123.452 26.9763 123.474 27.1541 123.474 27.2985C123.474 27.6429 123.413 27.9261 123.291 28.1483C123.169 28.3594 122.952 28.5427 122.641 28.6982C122.341 28.8426 121.93 28.9759 121.408 29.0981C120.897 29.2203 120.247 29.3647 119.458 29.5313C119.114 29.6202 118.831 29.6924 118.609 29.748C118.398 29.8035 118.203 29.8313 118.025 29.8313C117.67 29.8313 117.364 29.7757 117.109 29.6647C116.853 29.5647 116.642 29.4314 116.476 29.2647C116.32 29.087 116.204 28.8815 116.126 28.6482C116.048 28.4038 116.009 28.1483 116.009 27.8817C116.009 27.5929 116.087 27.2707 116.242 26.9152C116.398 26.5486 116.603 26.2209 116.859 25.9321C117.114 25.51 117.348 24.999 117.559 24.3991C117.77 23.7881 117.948 23.1382 118.092 22.4495C118.248 21.7607 118.364 21.0609 118.442 20.3499C118.52 19.639 118.559 18.9669 118.559 18.3337C118.559 17.445 118.448 16.634 118.225 15.9009C118.014 15.1677 117.675 14.54 117.209 14.0179C116.753 13.4958 116.17 13.0903 115.459 12.8015C114.759 12.5127 113.926 12.3683 112.96 12.3683C112.471 12.3683 112.032 12.4071 111.643 12.4849C111.266 12.5516 110.91 12.6515 110.577 12.7848C110.255 12.9181 109.949 13.0848 109.66 13.2847C109.372 13.4847 109.083 13.718 108.794 13.9846C109.249 15.2288 109.477 16.6785 109.477 18.3337C109.477 18.8336 109.444 19.4001 109.377 20.0333C109.311 20.6665 109.216 21.3164 109.094 21.9829C108.972 22.6494 108.816 23.3049 108.627 23.9492C108.439 24.5935 108.227 25.1823 107.994 25.7155C108.172 25.6821 108.355 25.6322 108.544 25.5655C108.733 25.4877 108.938 25.4489 109.161 25.4489C109.527 25.4489 109.822 25.5211 110.044 25.6655C110.277 25.8099 110.449 25.9876 110.56 26.1987C110.682 26.3987 110.76 26.6208 110.794 26.8652C110.838 27.0985 110.86 27.3096 110.86 27.4984C110.86 27.8539 110.788 28.1372 110.644 28.3483C110.51 28.5482 110.333 28.7093 110.11 28.8315C109.888 28.9426 109.633 29.0259 109.344 29.0814C109.055 29.1259 108.761 29.1648 108.461 29.1981C108.161 29.2314 107.866 29.2703 107.578 29.3147C107.3 29.3703 107.05 29.4536 106.828 29.5647C106.794 29.5869 106.717 29.6091 106.594 29.6313C106.472 29.6647 106.339 29.6924 106.195 29.7146C106.061 29.748 105.922 29.7757 105.778 29.798C105.645 29.8202 105.539 29.8313 105.461 29.8313C105.095 29.8313 104.784 29.7646 104.528 29.6313C104.273 29.498 104.062 29.3258 103.895 29.1148C103.739 28.9037 103.623 28.6704 103.545 28.4149C103.478 28.1594 103.445 27.9095 103.445 27.6651C103.445 27.3762 103.49 27.0874 103.578 26.7986C103.667 26.4986 103.789 26.2209 103.945 25.9654C104.189 25.5211 104.417 24.9934 104.628 24.3824C104.839 23.7603 105.017 23.1105 105.161 22.4328C105.317 21.7441 105.439 21.0498 105.528 20.3499C105.617 19.639 105.661 18.9669 105.661 18.3337C105.661 17.445 105.572 16.634 105.395 15.9009C105.228 15.1677 104.945 14.54 104.545 14.0179C104.145 13.4958 103.617 13.0903 102.962 12.8015C102.318 12.5127 101.518 12.3683 100.562 12.3683C99.6181 12.3683 98.6905 12.5738 97.7796 12.9848C96.8798 13.3847 95.9911 14.029 95.1135 14.9177C95.1135 15.4176 95.108 16.0397 95.0969 16.784C95.0969 17.5172 95.0969 18.2948 95.0969 19.1168C95.0969 19.9389 95.0969 20.7554 95.0969 21.5663C95.0969 22.3773 95.0969 23.1049 95.0969 23.7492C95.108 24.3935 95.1135 24.9156 95.1135 25.3156C95.1246 25.7044 95.1357 25.8821 95.1468 25.8488C95.3468 25.7932 95.5079 25.7488 95.6301 25.7155C95.7634 25.671 95.8689 25.6377 95.9467 25.6155C96.0355 25.5933 96.1022 25.5822 96.1466 25.5822C96.1911 25.5711 96.2411 25.5655 96.2966 25.5655C96.8965 25.5655 97.3519 25.7155 97.663 26.0154C97.974 26.3042 98.1296 26.7319 98.1296 27.2985C98.1296 27.7206 98.0462 28.0539 97.8796 28.2983C97.713 28.5427 97.5019 28.7371 97.2464 28.8815C96.9909 29.0259 96.7021 29.1314 96.3799 29.1981C96.0578 29.2536 95.7467 29.2981 95.4468 29.3314C95.2579 29.3536 95.0635 29.3925 94.8636 29.448C94.6636 29.5036 94.4636 29.5591 94.2637 29.6147C94.0637 29.6702 93.8638 29.7202 93.6638 29.7646C93.4639 29.8091 93.2806 29.8313 93.1139 29.8313C92.4585 29.8313 92.0086 29.6758 91.7642 29.3647C91.5198 29.0648 91.3976 28.6426 91.3976 28.0983Z"
	/>
	<path
		d="M142.104 27.4651C142.104 27.2207 142.115 26.9819 142.137 26.7486C142.159 26.5153 142.181 26.2987 142.204 26.0987C142.204 24.5546 142.204 23.1327 142.204 21.833C142.204 20.5332 142.204 19.3224 142.204 18.2004C142.204 17.0673 142.204 16.0064 142.204 15.0177C142.204 14.029 142.204 13.0737 142.204 12.1516C142.204 11.2185 142.204 10.3076 142.204 9.41887C142.215 8.51906 142.22 7.60258 142.22 6.66944C142.165 6.51392 142.109 6.2973 142.054 6.01958C142.009 5.74186 141.987 5.4808 141.987 5.23641C141.987 5.00312 142.02 4.76984 142.087 4.53655C142.165 4.30327 142.276 4.09776 142.42 3.92002C142.576 3.73117 142.765 3.5812 142.987 3.47011C143.209 3.35902 143.465 3.30348 143.753 3.30348C144.22 3.30348 144.692 3.33125 145.17 3.38679C145.647 3.44234 146.186 3.47011 146.786 3.47011C147.286 3.47011 147.786 3.44789 148.286 3.40346C148.786 3.34791 149.319 3.31459 149.885 3.30348C151.563 3.30348 153.079 3.47011 154.434 3.80337C155.801 4.13664 156.962 4.6532 157.917 5.35305C158.884 6.05291 159.628 6.94716 160.15 8.03583C160.672 9.11338 160.933 10.402 160.933 11.9017C160.933 13.3236 160.733 14.59 160.333 15.7009C159.944 16.8007 159.439 17.7616 158.817 18.5836C158.206 19.4057 157.517 20.0944 156.751 20.6499C155.995 21.1942 155.257 21.6108 154.534 21.8996C154.634 22.4995 154.79 23.066 155.001 23.5992C155.223 24.1214 155.501 24.5824 155.834 24.9823C156.179 25.3822 156.578 25.6988 157.034 25.9321C157.489 26.1654 158 26.282 158.567 26.282C158.989 26.282 159.372 26.2154 159.717 26.0821C160.072 25.9488 160.378 25.6877 160.633 25.2989C160.789 25.0767 160.978 24.8823 161.2 24.7157C161.422 24.5379 161.705 24.4491 162.05 24.4491C162.649 24.4491 163.116 24.6157 163.449 24.949C163.783 25.2822 163.949 25.7044 163.949 26.2154C163.949 26.693 163.81 27.1485 163.533 27.5818C163.266 28.015 162.883 28.3982 162.383 28.7315C161.894 29.0537 161.3 29.3092 160.6 29.498C159.9 29.698 159.122 29.798 158.267 29.798C157.478 29.798 156.762 29.6813 156.117 29.448C155.484 29.2259 154.912 28.9259 154.401 28.5482C153.901 28.1594 153.457 27.7206 153.068 27.2318C152.679 26.7319 152.346 26.2154 152.068 25.6821C151.791 25.1378 151.563 24.599 151.385 24.0658C151.207 23.5326 151.069 23.0327 150.969 22.5661C150.835 22.5661 150.657 22.5661 150.435 22.5661C150.213 22.5661 149.985 22.5661 149.752 22.5661C149.519 22.5661 149.286 22.5661 149.052 22.5661C148.83 22.555 148.647 22.5495 148.502 22.5495C148.18 22.5384 147.78 22.5328 147.303 22.5328C146.836 22.5217 146.408 22.5161 146.02 22.5161V24.949C146.042 25.4711 146.108 25.9821 146.22 26.482C146.331 26.9708 146.386 27.4762 146.386 27.9983C146.386 28.3205 146.32 28.5927 146.186 28.8148C146.064 29.037 145.903 29.2203 145.703 29.3647C145.503 29.5202 145.286 29.6313 145.053 29.698C144.82 29.7646 144.598 29.798 144.387 29.798C144.053 29.798 143.748 29.7369 143.47 29.6147C143.192 29.5036 142.954 29.3481 142.754 29.1481C142.554 28.937 142.393 28.6926 142.27 28.4149C142.159 28.1261 142.104 27.8095 142.104 27.4651ZM146.003 18.9336C146.292 18.9447 146.631 18.9558 147.019 18.9669C147.408 18.978 147.78 18.9891 148.136 19.0002C148.491 19.0113 148.808 19.0224 149.086 19.0335C149.363 19.0335 149.541 19.0335 149.619 19.0335C151.119 19.0335 152.346 18.828 153.301 18.417C154.268 18.006 155.023 17.4616 155.568 16.784C156.112 16.1064 156.484 15.3288 156.684 14.4512C156.895 13.5736 157.001 12.6737 157.001 11.7517C157.001 10.9408 156.873 10.2576 156.617 9.70214C156.362 9.1356 156.023 8.66903 155.601 8.30244C155.179 7.93585 154.701 7.64702 154.168 7.43595C153.635 7.22488 153.09 7.06936 152.535 6.96938C151.991 6.8694 151.452 6.8083 150.919 6.78609C150.396 6.76387 149.935 6.75276 149.536 6.75276C148.969 6.75276 148.391 6.76387 147.803 6.78609C147.225 6.79719 146.597 6.8083 145.92 6.81941C145.897 7.24155 145.881 7.6248 145.87 7.96917C145.87 8.31355 145.864 8.65236 145.853 8.98563C145.853 9.30778 145.853 9.64105 145.853 9.98542C145.853 10.3187 145.853 10.6964 145.853 11.1185C145.853 11.8739 145.853 12.5793 145.853 13.2347C145.864 13.8791 145.875 14.5123 145.886 15.1343C145.897 15.7453 145.908 16.3619 145.92 16.984C145.942 17.6061 145.97 18.2559 146.003 18.9336ZM153.818 22.1329C153.807 22.1329 153.801 22.1384 153.801 22.1496L153.818 22.1329Z"
	/>
	<path
		d="M170.831 21.7996C171.042 22.6328 171.353 23.3326 171.764 23.8992C172.186 24.4546 172.658 24.9045 173.181 25.2489C173.703 25.5933 174.253 25.8432 174.83 25.9987C175.419 26.1432 175.991 26.2154 176.547 26.2154C177.413 26.2154 178.185 26.1432 178.863 25.9987C179.54 25.8432 180.118 25.6599 180.596 25.4489C181.084 25.2267 181.479 24.999 181.779 24.7657C182.079 24.5324 182.29 24.3269 182.412 24.1491C182.523 23.9825 182.645 23.827 182.779 23.6826C182.923 23.527 183.073 23.3937 183.228 23.2826C183.395 23.1605 183.556 23.066 183.712 22.9994C183.878 22.9327 184.034 22.8994 184.178 22.8994C184.734 22.8994 185.161 23.066 185.461 23.3993C185.772 23.7214 185.928 24.1602 185.928 24.7157C185.928 24.9268 185.85 25.1934 185.695 25.5155C185.539 25.8377 185.25 26.1932 184.828 26.582C184.362 27.0152 183.839 27.4262 183.262 27.815C182.695 28.2038 182.068 28.5482 181.379 28.8482C180.69 29.137 179.94 29.3647 179.129 29.5313C178.33 29.7091 177.463 29.798 176.53 29.798C175.43 29.798 174.425 29.648 173.514 29.3481C172.603 29.0592 171.786 28.6649 171.064 28.165C170.342 27.654 169.715 27.0652 169.181 26.3987C168.648 25.7321 168.204 25.0212 167.848 24.2658C167.493 23.5104 167.226 22.7328 167.049 21.9329C166.871 21.1331 166.782 20.3555 166.782 19.6001C166.782 17.956 167.049 16.473 167.582 15.151C168.115 13.818 168.848 12.6793 169.781 11.7351C170.714 10.7908 171.82 10.0632 173.097 9.55218C174.375 9.04117 175.758 8.78567 177.246 8.78567C178.313 8.78567 179.313 8.94675 180.246 9.2689C181.179 9.57995 182.007 10.0243 182.729 10.602C183.462 11.1685 184.073 11.8517 184.562 12.6515C185.061 13.4403 185.411 14.3123 185.611 15.2677C185.833 15.4565 185.995 15.7064 186.095 16.0175C186.206 16.3174 186.261 16.6174 186.261 16.9173C186.261 17.4172 186.089 17.8282 185.745 18.1504C185.411 18.4614 184.989 18.6781 184.478 18.8002C183.356 19.0891 182.234 19.3557 181.112 19.6001C179.99 19.8445 178.863 20.0833 177.73 20.3166C176.597 20.5499 175.452 20.7887 174.297 21.0331C173.153 21.2775 171.997 21.533 170.831 21.7996ZM170.548 18.7169C172.436 18.2726 174.347 17.856 176.28 17.4672C178.213 17.0784 180.179 16.6451 182.179 16.1675C181.99 15.6565 181.734 15.1732 181.412 14.7178C181.09 14.2512 180.712 13.8457 180.279 13.5014C179.846 13.157 179.363 12.8848 178.829 12.6849C178.307 12.4849 177.741 12.3849 177.13 12.3849C176.186 12.3849 175.325 12.5404 174.547 12.8515C173.78 13.1514 173.114 13.5791 172.547 14.1346C171.981 14.6789 171.525 15.3454 171.181 16.1341C170.837 16.9118 170.626 17.7727 170.548 18.7169Z"
	/>
	<path
		d="M191.227 27.4651C191.227 27.0985 191.249 26.7708 191.293 26.482C191.349 26.1932 191.488 25.9432 191.71 25.7321C192.721 24.5102 193.765 23.2993 194.843 22.0996C195.931 20.8887 196.981 19.7223 197.992 18.6003C199.003 17.4672 199.936 16.3952 200.791 15.3843C201.658 14.3734 202.374 13.4458 202.941 12.6015L201.208 12.6515C200.564 12.6737 199.925 12.6904 199.292 12.7015C198.67 12.7126 198.075 12.7237 197.509 12.7348C196.942 12.746 196.426 12.7571 195.959 12.7682C195.493 12.7682 195.093 12.7682 194.759 12.7682H194.593C194.593 13.0792 194.615 13.418 194.659 13.7846C194.704 14.1401 194.726 14.5011 194.726 14.8677C194.726 15.0788 194.682 15.2843 194.593 15.4843C194.504 15.6731 194.376 15.8453 194.21 16.0008C194.054 16.1452 193.86 16.2674 193.626 16.3674C193.393 16.4563 193.132 16.5007 192.843 16.5007C192.621 16.5007 192.399 16.4563 192.177 16.3674C191.954 16.2786 191.749 16.1564 191.56 16.0008C191.382 15.8453 191.232 15.6676 191.11 15.4676C190.999 15.2565 190.944 15.0344 190.944 14.8011C190.944 14.4789 190.955 14.2068 190.977 13.9846C191.01 13.7624 191.027 13.4736 191.027 13.1181C191.027 12.8293 191.016 12.5849 190.994 12.3849C190.971 12.1739 190.944 11.9739 190.91 11.785C190.877 11.5851 190.849 11.3796 190.827 11.1685C190.805 10.9463 190.794 10.6742 190.794 10.352C190.794 10.1743 190.832 9.98542 190.91 9.78546C190.988 9.57439 191.11 9.38554 191.277 9.21891C191.443 9.04117 191.66 8.89676 191.927 8.78567C192.193 8.67458 192.521 8.61904 192.91 8.61904C193.165 8.61904 193.41 8.66903 193.643 8.76901C193.887 8.85788 194.104 8.98563 194.293 9.15226C194.371 9.14115 194.448 9.1356 194.526 9.1356C194.615 9.12449 194.704 9.11893 194.793 9.11893H205.84C206.118 9.11893 206.385 9.15781 206.64 9.23558C206.907 9.30223 207.135 9.41332 207.323 9.56884C207.523 9.72436 207.679 9.92988 207.79 10.1854C207.912 10.4409 207.973 10.7575 207.973 11.1352C207.973 11.5129 207.818 11.9739 207.507 12.5182C207.207 13.0514 206.857 13.618 206.457 14.2179C205.757 15.1843 204.957 16.173 204.057 17.1839C203.158 18.1948 202.23 19.2113 201.275 20.2333C200.319 21.2442 199.37 22.2495 198.425 23.2493C197.492 24.238 196.642 25.1989 195.876 26.1321C196.898 26.1321 197.875 26.1265 198.809 26.1154C199.742 26.0932 200.592 26.071 201.358 26.0487C202.125 26.0154 202.78 25.9821 203.324 25.9488C203.869 25.9043 204.257 25.8599 204.491 25.8155C204.657 25.7932 204.841 25.7432 205.041 25.6655C205.252 25.5877 205.479 25.5155 205.724 25.4489C205.879 24.9823 206.024 24.5102 206.157 24.0325C206.301 23.5548 206.479 23.0716 206.69 22.5828C206.846 22.2384 207.118 21.9996 207.507 21.8663C207.907 21.733 208.462 21.8107 209.173 22.0996C209.395 22.1995 209.601 22.3217 209.79 22.4662C209.99 22.5995 210.151 22.755 210.273 22.9327C210.395 23.1105 210.473 23.3104 210.506 23.5326C210.539 23.7437 210.506 23.9714 210.406 24.2158C210.284 24.4824 210.167 24.7157 210.056 24.9156C209.945 25.1045 209.828 25.2989 209.706 25.4989C209.595 25.6877 209.479 25.8932 209.356 26.1154C209.234 26.3265 209.106 26.582 208.973 26.8819C208.918 27.0152 208.868 27.1596 208.823 27.3151C208.779 27.4707 208.729 27.6262 208.673 27.7817C208.629 28.0039 208.562 28.2094 208.473 28.3982L208.223 29.0481C208.134 29.2481 208.012 29.4203 207.857 29.5647C207.701 29.7091 207.518 29.8202 207.307 29.8979C207.107 29.9757 206.879 30.009 206.624 29.9979C206.379 29.9979 206.124 29.9424 205.857 29.8313C205.613 29.7202 205.391 29.5536 205.191 29.3314L194.076 29.4814C193.476 29.4814 192.993 29.4203 192.627 29.2981C192.26 29.1648 191.971 29.0037 191.76 28.8148C191.549 28.6149 191.405 28.3982 191.327 28.165C191.26 27.9206 191.227 27.6873 191.227 27.4651Z"
	/>
	<path
		d="M217.555 23.4826C217.077 22.9605 216.594 22.4162 216.105 21.8496C215.627 21.272 215.194 20.6499 214.805 19.9833C214.428 19.3168 214.116 18.5892 213.872 17.8005C213.639 17.0117 213.522 16.1397 213.522 15.1843C213.522 14.6622 213.544 14.2179 213.589 13.8513C213.644 13.4847 213.705 13.107 213.772 12.7182H213.422C213.222 12.7182 213.006 12.6849 212.772 12.6182C212.539 12.5404 212.322 12.4294 212.122 12.2849C211.923 12.1294 211.756 11.935 211.623 11.7017C211.489 11.4573 211.423 11.163 211.423 10.8186C211.423 10.5186 211.473 10.2576 211.573 10.0354C211.673 9.80212 211.8 9.61327 211.956 9.46886C212.122 9.32445 212.311 9.21891 212.522 9.15226C212.733 9.0745 212.95 9.03562 213.172 9.03562C213.206 9.03562 213.283 9.03562 213.406 9.03562C213.528 9.03562 213.667 9.04117 213.822 9.05228C213.9 9.05228 213.994 9.05783 214.105 9.06894C214.228 9.06894 214.328 9.06894 214.405 9.06894C214.805 9.09116 215.211 9.10227 215.622 9.10227C216.033 9.10227 216.477 9.09672 216.955 9.08561C217.332 9.08561 217.632 9.1356 217.855 9.23558C218.088 9.32445 218.26 9.44109 218.371 9.5855C218.493 9.71881 218.571 9.87433 218.604 10.0521C218.638 10.2298 218.654 10.402 218.654 10.5686C218.654 10.8019 218.604 11.0074 218.504 11.1852C218.404 11.3629 218.288 11.5351 218.155 11.7017C218.021 11.8684 217.882 12.035 217.738 12.2016C217.605 12.3683 217.505 12.5571 217.438 12.7682C217.405 12.9015 217.366 13.0792 217.321 13.3014C217.288 13.5236 217.255 13.7569 217.221 14.0012C217.199 14.2345 217.177 14.4734 217.155 14.7178C217.144 14.9511 217.138 15.1566 217.138 15.3343C217.138 15.9564 217.21 16.5118 217.355 17.0006C217.499 17.4783 217.694 17.9227 217.938 18.3337C218.193 18.7447 218.482 19.1335 218.804 19.5001C219.138 19.8667 219.482 20.2388 219.838 20.6165C220.249 21.0498 220.665 21.5219 221.087 22.0329C221.509 22.5328 221.87 23.0938 222.17 23.7159L222.254 23.5493C222.531 22.9716 222.859 22.4439 223.237 21.9663C223.615 21.4886 224.042 21.0109 224.52 20.5332C224.864 20.1666 225.198 19.8056 225.52 19.4501C225.853 19.0946 226.147 18.7169 226.403 18.317C226.658 17.906 226.858 17.4616 227.003 16.984C227.158 16.4952 227.236 15.9453 227.236 15.3343C227.236 14.8566 227.208 14.4567 227.153 14.1346C227.108 13.8013 227.042 13.518 226.953 13.2847C226.875 13.0514 226.786 12.857 226.686 12.7015C226.586 12.546 226.492 12.4016 226.403 12.2683C226.247 12.0794 226.114 11.8684 226.003 11.6351C225.892 11.4018 225.836 11.0963 225.836 10.7186C225.836 10.4964 225.864 10.2909 225.92 10.1021C225.986 9.9021 226.092 9.72992 226.236 9.5855C226.392 9.44109 226.597 9.33 226.853 9.25224C227.119 9.16337 227.453 9.11893 227.853 9.11893C228.241 9.11893 228.641 9.11338 229.052 9.10227C229.463 9.08005 229.963 9.06894 230.552 9.06894C230.741 9.06894 230.946 9.10227 231.168 9.16892C231.391 9.23558 231.591 9.33555 231.768 9.46886C231.957 9.60217 232.113 9.7688 232.235 9.96876C232.357 10.1687 232.418 10.4076 232.418 10.6853C232.418 11.1741 232.274 11.5851 231.985 11.9183C231.707 12.2516 231.207 12.446 230.485 12.5016C230.552 12.7348 230.608 12.9959 230.652 13.2847C230.707 13.5736 230.752 13.8568 230.785 14.1346C230.819 14.4123 230.841 14.6733 230.852 14.9177C230.874 15.151 230.885 15.3343 230.885 15.4676C230.885 16.2119 230.769 16.9284 230.535 17.6172C230.302 18.2948 230.002 18.9391 229.635 19.5501C229.269 20.1611 228.858 20.7387 228.402 21.2831C227.958 21.8274 227.519 22.3328 227.086 22.7994C226.731 23.1993 226.375 23.6104 226.02 24.0325C225.675 24.4435 225.359 24.8657 225.07 25.2989C224.792 25.7321 224.559 26.1765 224.37 26.632C224.181 27.0763 224.081 27.5318 224.07 27.9983C224.048 28.4316 223.97 28.7704 223.837 29.0148C223.714 29.2592 223.559 29.4369 223.37 29.548C223.192 29.6702 223.004 29.7424 222.804 29.7646C222.604 29.7868 222.426 29.798 222.27 29.798C222.037 29.798 221.804 29.7591 221.57 29.6813C221.337 29.6036 221.126 29.4925 220.937 29.3481C220.748 29.2147 220.593 29.0537 220.471 28.8648C220.349 28.676 220.287 28.4705 220.287 28.2483C220.276 27.815 220.193 27.3985 220.037 26.9985C219.893 26.5875 219.693 26.1876 219.438 25.7988C219.193 25.41 218.904 25.0267 218.571 24.649C218.249 24.2602 217.91 23.8714 217.555 23.4826Z"
	/>
	<path
		d="M234.768 19.3168C234.768 17.806 235.023 16.4007 235.534 15.101C236.045 13.8013 236.745 12.6737 237.634 11.7184C238.534 10.763 239.583 10.0132 240.783 9.46886C241.994 8.92453 243.299 8.65236 244.699 8.65236C245.41 8.65236 246.088 8.73568 246.732 8.90231C247.387 9.06894 247.993 9.29112 248.548 9.56884C249.115 9.83545 249.62 10.1409 250.065 10.4853C250.52 10.8297 250.909 11.1852 251.231 11.5518C251.22 11.3962 251.214 11.2296 251.214 11.0519C251.214 10.8741 251.214 10.7186 251.214 10.5853C251.214 10.3076 251.253 10.0521 251.331 9.81879C251.409 9.57439 251.531 9.36333 251.698 9.18559C251.864 9.00785 252.075 8.86899 252.331 8.76901C252.586 8.65792 252.897 8.60237 253.264 8.60237C253.575 8.60237 253.853 8.66347 254.097 8.78567C254.353 8.89676 254.569 9.04117 254.747 9.21891C254.925 9.38554 255.064 9.56884 255.163 9.7688C255.263 9.95765 255.313 10.1298 255.313 10.2854C255.313 10.6631 255.291 11.0463 255.247 11.4351C255.213 11.8128 255.186 12.1961 255.163 12.5849C255.163 13.8068 255.152 14.89 255.13 15.8342C255.119 16.7673 255.102 17.6283 255.08 18.417C255.058 18.9502 255.041 19.5057 255.03 20.0833C255.019 20.6499 255.014 21.172 255.014 21.6497C255.014 22.7272 255.014 23.5826 255.014 24.2158C255.014 24.849 255.041 25.31 255.097 25.5988C255.197 25.5766 255.341 25.5266 255.53 25.4489C255.73 25.3711 255.913 25.2878 256.08 25.1989C256.235 25.1434 256.391 25.0878 256.547 25.0323C256.702 24.9767 256.896 24.949 257.13 24.949C257.396 24.949 257.63 25.0101 257.83 25.1323C258.03 25.2434 258.196 25.3933 258.33 25.5822C258.474 25.7599 258.579 25.9654 258.646 26.1987C258.713 26.4209 258.746 26.6375 258.746 26.8486C258.746 27.1485 258.674 27.454 258.529 27.765C258.385 28.065 258.118 28.2816 257.73 28.4149C257.396 28.5371 257.058 28.6649 256.713 28.7982C256.369 28.9315 256.019 29.0537 255.663 29.1648C255.319 29.2758 254.969 29.3703 254.614 29.448C254.269 29.5258 253.914 29.5647 253.547 29.5647C253.114 29.5647 252.758 29.4758 252.481 29.2981C252.203 29.1203 251.986 28.8926 251.831 28.6149C251.675 28.326 251.564 28.0094 251.498 27.6651C251.431 27.3207 251.392 26.9819 251.381 26.6486C251.037 27.0819 250.62 27.4873 250.131 27.865C249.642 28.2427 249.104 28.576 248.515 28.8648C247.926 29.1536 247.293 29.3814 246.615 29.548C245.949 29.7146 245.26 29.798 244.549 29.798C243.105 29.798 241.783 29.5369 240.583 29.0148C239.383 28.4816 238.35 27.7484 237.484 26.8152C236.628 25.871 235.962 24.7601 235.484 23.4826C235.007 22.2051 234.768 20.8165 234.768 19.3168ZM238.6 19.3168C238.6 20.2166 238.734 21.0831 239 21.9163C239.278 22.7494 239.672 23.4882 240.183 24.1325C240.705 24.7657 241.344 25.2711 242.1 25.6488C242.855 26.0265 243.71 26.2154 244.666 26.2154C245.61 26.2154 246.465 26.0321 247.232 25.6655C247.998 25.2989 248.665 24.8212 249.231 24.2325C249.809 23.6437 250.281 22.9883 250.648 22.2662C251.014 21.533 251.264 20.7998 251.398 20.0667V18.6003C251.275 17.9227 251.042 17.2061 250.698 16.4507C250.364 15.6953 249.92 15.001 249.365 14.3678C248.82 13.7235 248.165 13.1959 247.398 12.7848C246.632 12.3627 245.765 12.1516 244.799 12.1516C243.888 12.1516 243.055 12.3405 242.3 12.7182C241.544 13.0848 240.889 13.5958 240.333 14.2512C239.789 14.8955 239.361 15.6509 239.05 16.5174C238.75 17.3839 238.6 18.317 238.6 19.3168Z"
	/>
	<path
		d="M264.145 28.0816C264.145 27.8817 264.151 27.6762 264.162 27.4651C264.184 27.254 264.206 27.0485 264.228 26.8486C264.262 26.5486 264.295 26.2209 264.328 25.8654C264.362 25.51 264.378 25.11 264.378 24.6657C264.378 23.7992 264.373 22.9827 264.362 22.2162C264.362 21.4386 264.35 20.6388 264.328 19.8167C264.328 19.7945 264.328 19.7612 264.328 19.7167C264.328 19.6612 264.323 19.5556 264.312 19.4001C264.312 19.2446 264.306 19.0169 264.295 18.7169C264.295 18.417 264.289 17.9949 264.278 17.4505C264.267 16.9062 264.25 16.2286 264.228 15.4176C264.217 14.5956 264.201 13.5958 264.178 12.4182C264.034 12.4405 263.862 12.4627 263.662 12.4849C263.473 12.496 263.245 12.5016 262.979 12.5016C262.779 12.5016 262.573 12.4682 262.362 12.4016C262.162 12.3349 261.973 12.235 261.795 12.1016C261.629 11.9572 261.49 11.7739 261.379 11.5518C261.279 11.3185 261.229 11.0352 261.229 10.7019C261.229 10.1021 261.379 9.65216 261.679 9.35222C261.99 9.04117 262.368 8.88565 262.812 8.88565C262.99 8.88565 263.162 8.90787 263.328 8.9523C263.495 8.99674 263.673 9.01895 263.862 9.01895C264.084 9.01895 264.312 9.0134 264.545 9.00229C264.778 8.99118 265.006 8.97452 265.228 8.9523C265.472 8.93008 265.711 8.91342 265.945 8.90231C266.189 8.8912 266.406 8.88565 266.594 8.88565C267.05 8.88565 267.428 9.03562 267.728 9.33555C268.027 9.63549 268.177 10.0576 268.177 10.602C268.177 10.7353 268.172 10.8908 268.161 11.0685C268.161 11.2463 268.15 11.4185 268.127 11.5851C268.505 11.2185 268.933 10.8686 269.411 10.5353C269.888 10.202 270.405 9.90766 270.96 9.65216C271.527 9.38554 272.132 9.17448 272.776 9.01895C273.421 8.86343 274.104 8.78567 274.826 8.78567C276.237 8.78567 277.47 9.01895 278.525 9.48552C279.592 9.94098 280.48 10.6075 281.191 11.4851C281.913 12.3516 282.452 13.418 282.808 14.6844C283.174 15.9508 283.358 17.3894 283.358 19.0002C283.358 19.489 283.324 20 283.258 20.5332C283.191 21.0664 283.097 21.5997 282.974 22.1329C282.863 22.6661 282.724 23.1993 282.558 23.7326C282.402 24.2547 282.225 24.749 282.025 25.2156C282.28 25.1378 282.524 25.0712 282.758 25.0156C282.991 24.9601 283.185 24.9212 283.341 24.899C284.585 24.7768 285.207 25.3433 285.207 26.5986C285.207 26.7541 285.191 26.9263 285.157 27.1152C285.124 27.2929 285.057 27.4707 284.957 27.6484C284.857 27.815 284.718 27.9761 284.541 28.1316C284.363 28.2761 284.135 28.3982 283.858 28.4982L282.058 28.9148C281.502 29.0814 281.053 29.2203 280.708 29.3314C280.375 29.4536 280.092 29.548 279.858 29.6147C279.636 29.6924 279.447 29.7424 279.292 29.7646C279.136 29.798 278.964 29.8091 278.775 29.798C278.509 29.798 278.275 29.7313 278.075 29.598C277.875 29.4758 277.709 29.3203 277.575 29.1314C277.442 28.9315 277.342 28.7148 277.276 28.4816C277.209 28.2483 277.176 28.0205 277.176 27.7984C277.176 27.4429 277.226 27.0819 277.326 26.7153C277.426 26.3487 277.603 26.0154 277.859 25.7155C278.17 25.3156 278.431 24.8657 278.642 24.3658C278.864 23.8659 279.042 23.3271 279.175 22.7494C279.308 22.1718 279.403 21.5663 279.458 20.9331C279.525 20.2999 279.558 19.6556 279.558 19.0002C279.558 18.2448 279.475 17.4783 279.308 16.7007C279.153 15.912 278.881 15.201 278.492 14.5678C278.114 13.9235 277.609 13.4014 276.976 13.0015C276.354 12.5904 275.57 12.3849 274.626 12.3849C273.971 12.3849 273.326 12.4905 272.693 12.7015C272.071 12.9015 271.471 13.1736 270.894 13.518C270.327 13.8513 269.794 14.2345 269.294 14.6678C268.794 15.101 268.355 15.5454 267.977 16.0008C267.966 16.5007 267.955 17.0062 267.944 17.5172C267.944 18.0171 267.944 18.5225 267.944 19.0335C267.922 19.9 267.905 20.761 267.894 21.6163C267.883 22.4717 267.878 23.3382 267.878 24.2158C267.878 24.4713 267.878 24.7323 267.878 24.999C267.878 25.2545 267.889 25.5266 267.911 25.8155L268.361 25.6821C268.483 25.6488 268.6 25.621 268.711 25.5988C268.833 25.5655 268.938 25.5488 269.027 25.5488C269.627 25.5488 270.083 25.6988 270.394 25.9987C270.705 26.2876 270.86 26.7153 270.86 27.2818C270.86 27.7039 270.777 28.0428 270.61 28.2983C270.444 28.5427 270.233 28.7371 269.977 28.8815C269.722 29.0148 269.438 29.1092 269.127 29.1648C268.827 29.2203 268.533 29.2647 268.244 29.2981C268.089 29.3203 267.939 29.3369 267.794 29.3481C267.65 29.3703 267.528 29.398 267.428 29.4314C267.072 29.5313 266.767 29.6147 266.511 29.6813C266.256 29.7591 266.033 29.798 265.845 29.798C265.189 29.798 264.739 29.648 264.495 29.3481C264.262 29.0481 264.145 28.626 264.145 28.0816Z"
	/>
</svg>
