<svg viewBox="0 0 137 32" fill="currentColor">
	<path
		d="M18.0406 11.3998H18.1122V21.2804C18.1122 23.9415 16.7041 25.9463 13.8878 27.2947C13.2196 27.5811 12.4797 27.7243 11.6683 27.7243H6.51313C4.09069 27.7243 2.32458 26.364 1.2148 23.6432C1.0716 23.0465 1 22.5215 1 22.068V18.0585C1 17.9988 2.12172 16.8771 4.36516 14.6933H4.43675V22.784C4.43675 23.6432 5.00955 24.1921 6.15513 24.4308H11.9547C13.1718 24.4308 14.0549 23.7864 14.6038 22.4976C14.6993 22.1158 14.747 21.71 14.747 21.2804V14.6933C14.747 14.6337 15.8449 13.5358 18.0406 11.3998ZM9.73508 13.3329C9.80668 13.3449 10.5704 14.1086 12.0263 15.6241V15.6957C12.0263 15.7554 11.2625 16.5191 9.73508 17.9869C9.67542 17.9869 8.91169 17.2231 7.44391 15.6957V15.6241C7.45585 15.5525 8.21957 14.7888 9.73508 13.3329Z"
	/>
	<path
		d="M24.1981 1H24.2697V21.5489C24.2697 21.6444 24.222 21.6921 24.1265 21.6921H21.1193C21.0239 21.6921 20.9761 21.6444 20.9761 21.5489V4.22196C20.9761 4.16229 22.0501 3.08831 24.1981 1Z"
	/>
	<path
		d="M31.179 11.0955H34.3294C35.9165 11.0955 37.0859 12.0501 37.8377 13.9594C37.9332 14.3413 37.9809 14.747 37.9809 15.1766V18.2554H40.2005C40.2959 18.2673 40.3437 18.315 40.3437 18.3986V21.5489L40.2721 21.6921H37.9809C37.9809 23.685 37.1933 25.3317 35.6181 26.6325C34.5919 27.3962 33.4702 27.778 32.253 27.778H27.957V27.7064C30.0692 25.5107 31.1909 24.4129 31.3222 24.4129C32.9451 24.4129 33.9952 23.7208 34.4726 22.3365L34.5442 21.6921H32.3962C29.6635 21.6921 27.8258 20.7613 26.8831 18.8998C26.4535 18.1838 26.2387 17.4439 26.2387 16.6802V16.0358C26.2387 14.0072 27.432 12.432 29.8186 11.3103C30.4272 11.1671 30.8807 11.0955 31.179 11.0955ZM29.4606 16.3222C29.4606 17.611 30.3675 18.2554 32.1814 18.2554H34.5442V14.3174H32.1814C30.7017 14.3174 29.8186 14.8186 29.5322 15.821C29.5322 16.0955 29.5084 16.2625 29.4606 16.3222Z"
	/>
	<path
		d="M53.5895 11.1671H59.8902C61.8234 11.1671 63.3747 12.2888 64.5442 14.5322C64.7351 15.2243 64.8305 15.7494 64.8305 16.1074V16.7518C64.8305 18.7804 63.6372 20.3556 61.2506 21.4773C60.642 21.6205 60.1885 21.6921 59.8902 21.6921H47.6468C46.3103 21.6921 45.0453 21.1671 43.852 20.1169C42.7422 21.1671 41.5728 21.6921 40.3437 21.6921H38.7685C38.673 21.6921 38.6253 21.6444 38.6253 21.5489V18.4702C38.6372 18.3747 38.685 18.327 38.7685 18.327H39.1265C40.5704 18.327 41.5489 17.7542 42.0621 16.6086C42.1575 16.2267 42.2052 15.9881 42.2052 15.8926V14.5322C42.2052 14.4726 43.3031 13.3747 45.4988 11.2387L45.5704 11.3819V15.6778C45.5704 16.9189 46.2864 17.778 47.7184 18.2554C48.2076 18.3031 48.5895 18.327 48.864 18.327H49.0072C48.7685 17.79 48.6492 17.1695 48.6492 16.4654V16.3938C48.6492 14.031 49.9379 12.3365 52.5155 11.3103C52.969 11.2148 53.327 11.1671 53.5895 11.1671ZM51.9427 16.2506V16.6086C51.9427 17.3723 52.3962 17.9451 53.3031 18.327H60.105C60.821 18.327 61.3222 17.7064 61.6086 16.4654C61.6086 15.2124 60.821 14.5203 59.2458 14.389H54.5919C53.2434 14.389 52.4081 14.7947 52.0859 15.6062C51.9905 15.9165 51.9427 16.1313 51.9427 16.2506ZM56.9547 5.43914C57.0263 5.45107 57.79 6.2148 59.2458 7.73031V7.80191C59.2458 7.86157 58.4821 8.6253 56.9547 10.0931H56.8831C56.8234 10.0931 56.0597 9.32936 54.5919 7.80191C54.6038 7.73031 55.3914 6.94272 56.9547 5.43914Z"
	/>
	<path
		d="M71.5967 10.9881H71.6683V21.9427C71.6683 23.8162 70.7375 25.4391 68.8759 26.8115C67.8854 27.3365 66.9069 27.599 65.9403 27.599H61.6444V27.5274C63.7566 25.3317 64.8783 24.2339 65.0095 24.2339C66.6325 24.2339 67.7064 23.6134 68.2315 22.3723C68.327 21.9427 68.3747 21.6325 68.3747 21.4415V14.21C68.3747 14.1504 69.4487 13.0764 71.5967 10.9881Z"
	/>
	<path
		d="M88.4582 11.9547H88.9594C90.3198 11.9547 92.0382 13.315 94.1146 16.0358C94.6515 17.5632 95.5346 18.327 96.7637 18.327H97.3365C97.432 18.3389 97.4797 18.3866 97.4797 18.4702V21.6205C97.4797 21.716 97.432 21.7637 97.3365 21.7637H96.6921C95.8687 21.7637 94.9857 21.5728 94.043 21.1909C92.9093 22.957 91.5012 23.8401 89.8186 23.8401H89.1742C87.5274 23.8401 85.8568 22.7661 84.1623 20.6181L82.8735 19.401H82.5155C80.7017 19.6516 79.7947 20.5346 79.7947 22.0501V27.778C79.7947 27.8377 78.7208 28.9117 76.5728 31H76.5012V21.1909C76.5012 19.1384 77.6945 17.5155 80.0811 16.3222C80.7613 16.0835 81.5489 15.9642 82.4439 15.9642H83.0167C85.4988 13.4344 86.9069 12.1695 87.241 12.1695C87.6826 12.0263 88.0883 11.9547 88.4582 11.9547ZM85.8807 17.8974C87.5632 19.6635 88.6372 20.5465 89.1026 20.5465L89.4606 20.6181C90.7971 20.3795 91.4654 19.7589 91.4654 18.7566V18.6134C91.4654 17.8019 90.7971 16.8473 89.4606 15.7494C89.4606 15.6897 89.222 15.4511 88.7446 15.0334C88.6611 15.0453 87.7064 16 85.8807 17.8974Z"
	/>
	<path
		d="M96.5847 23.0167L98.7327 25.0931C98.7327 25.0334 99.4248 24.3413 100.809 23.0167C100.881 23.0286 101.644 23.7924 103.1 25.3079V25.3795C103.1 25.4391 102.337 26.2029 100.809 27.6706L98.6611 25.5943C98.6611 25.6539 97.969 26.3461 96.5847 27.6706C96.5251 27.6706 95.7613 26.9069 94.2936 25.3795V25.3079C94.3055 25.2363 95.0692 24.4726 96.5847 23.0167ZM104.854 11.2387H104.926V15.821C104.926 17.1098 105.809 17.9451 107.575 18.327H108.936C109.031 18.3389 109.079 18.3866 109.079 18.4702V21.5489C109.079 21.6444 109.031 21.6921 108.936 21.6921H107.002C105.666 21.6921 104.401 21.1671 103.208 20.1169C102.098 21.1671 100.928 21.6921 99.6993 21.6921H96.2625C96.1671 21.6921 96.1193 21.6444 96.1193 21.5489V18.4702C96.1313 18.3747 96.179 18.327 96.2625 18.327H98.3389C100.045 18.327 101.095 17.6587 101.489 16.3222L101.561 15.8926V14.5322C101.561 14.4726 102.659 13.3747 104.854 11.2387Z"
	/>
	<path
		d="M125.582 11.1671L125.654 11.3103V15.6062C125.654 16.8831 126.346 17.7661 127.73 18.2554C128.22 18.3031 128.601 18.327 128.876 18.327H129.663C129.759 18.3389 129.807 18.3866 129.807 18.4702V21.5489C129.807 21.6444 129.759 21.6921 129.663 21.6921H127.372C126.227 21.6921 125.129 21.1671 124.079 20.1169V20.0453H124.007C122.778 21.1432 121.489 21.6921 120.141 21.6921H107.181C107.086 21.6921 107.038 21.6444 107.038 21.5489V18.4702C107.05 18.3747 107.098 18.327 107.181 18.327H120.212C121.358 18.327 122.026 17.7542 122.217 16.6086V14.4606C122.575 14.031 123.697 12.9332 125.582 11.1671Z"
	/>
	<path
		d="M130.845 6.44153H130.916C130.988 6.45346 131.752 7.21718 133.208 8.7327V8.8043C133.208 8.86396 132.444 9.62768 130.916 11.0955C130.857 11.0955 130.069 10.3079 128.554 8.7327C128.566 8.6611 129.329 7.89737 130.845 6.44153ZM136.215 11.2387H136.286V16.3938C136.286 18.2196 135.284 19.7709 133.279 21.0477C132.432 21.4773 131.668 21.6921 130.988 21.6921H128.41C128.315 21.6921 128.267 21.6444 128.267 21.5489V18.4702C128.279 18.3747 128.327 18.327 128.41 18.327H130.773C132.205 18.327 132.921 17.6587 132.921 16.3222V14.389C134.174 13.136 135.272 12.0859 136.215 11.2387Z"
	/>
	<path
		d="M18.0406 11.3998H18.1122V21.2804C18.1122 23.9415 16.7041 25.9463 13.8878 27.2947C13.2196 27.5811 12.4797 27.7243 11.6683 27.7243H6.51313C4.09069 27.7243 2.32458 26.364 1.2148 23.6432C1.0716 23.0465 1 22.5215 1 22.068V18.0585C1 17.9988 2.12172 16.8771 4.36516 14.6933H4.43675V22.784C4.43675 23.6432 5.00955 24.1921 6.15513 24.4308H11.9547C13.1718 24.4308 14.0549 23.7864 14.6038 22.4976C14.6993 22.1158 14.747 21.71 14.747 21.2804V14.6933C14.747 14.6337 15.8449 13.5358 18.0406 11.3998ZM9.73508 13.3329C9.80668 13.3449 10.5704 14.1086 12.0263 15.6241V15.6957C12.0263 15.7554 11.2625 16.5191 9.73508 17.9869C9.67542 17.9869 8.91169 17.2231 7.44391 15.6957V15.6241C7.45585 15.5525 8.21957 14.7888 9.73508 13.3329Z"
	/>
	<path
		d="M24.1981 1H24.2697V21.5489C24.2697 21.6444 24.222 21.6921 24.1265 21.6921H21.1193C21.0239 21.6921 20.9761 21.6444 20.9761 21.5489V4.22196C20.9761 4.16229 22.0501 3.08831 24.1981 1Z"
	/>
	<path
		d="M31.179 11.0955H34.3294C35.9165 11.0955 37.0859 12.0501 37.8377 13.9594C37.9332 14.3413 37.9809 14.747 37.9809 15.1766V18.2554H40.2005C40.2959 18.2673 40.3437 18.315 40.3437 18.3986V21.5489L40.2721 21.6921H37.9809C37.9809 23.685 37.1933 25.3317 35.6181 26.6325C34.5919 27.3962 33.4702 27.778 32.253 27.778H27.957V27.7064C30.0692 25.5107 31.1909 24.4129 31.3222 24.4129C32.9451 24.4129 33.9952 23.7208 34.4726 22.3365L34.5442 21.6921H32.3962C29.6635 21.6921 27.8258 20.7613 26.8831 18.8998C26.4535 18.1838 26.2387 17.4439 26.2387 16.6802V16.0358C26.2387 14.0072 27.432 12.432 29.8186 11.3103C30.4272 11.1671 30.8807 11.0955 31.179 11.0955ZM29.4606 16.3222C29.4606 17.611 30.3675 18.2554 32.1814 18.2554H34.5442V14.3174H32.1814C30.7017 14.3174 29.8186 14.8186 29.5322 15.821C29.5322 16.0955 29.5084 16.2625 29.4606 16.3222Z"
	/>
	<path
		d="M53.5895 11.1671H59.8902C61.8234 11.1671 63.3747 12.2888 64.5442 14.5322C64.7351 15.2243 64.8305 15.7494 64.8305 16.1074V16.7518C64.8305 18.7804 63.6372 20.3556 61.2506 21.4773C60.642 21.6205 60.1885 21.6921 59.8902 21.6921H47.6468C46.3103 21.6921 45.0453 21.1671 43.852 20.1169C42.7422 21.1671 41.5728 21.6921 40.3437 21.6921H38.7685C38.673 21.6921 38.6253 21.6444 38.6253 21.5489V18.4702C38.6372 18.3747 38.685 18.327 38.7685 18.327H39.1265C40.5704 18.327 41.5489 17.7542 42.0621 16.6086C42.1575 16.2267 42.2052 15.9881 42.2052 15.8926V14.5322C42.2052 14.4726 43.3031 13.3747 45.4988 11.2387L45.5704 11.3819V15.6778C45.5704 16.9189 46.2864 17.778 47.7184 18.2554C48.2076 18.3031 48.5895 18.327 48.864 18.327H49.0072C48.7685 17.79 48.6492 17.1695 48.6492 16.4654V16.3938C48.6492 14.031 49.9379 12.3365 52.5155 11.3103C52.969 11.2148 53.327 11.1671 53.5895 11.1671ZM51.9427 16.2506V16.6086C51.9427 17.3723 52.3962 17.9451 53.3031 18.327H60.105C60.821 18.327 61.3222 17.7064 61.6086 16.4654C61.6086 15.2124 60.821 14.5203 59.2458 14.389H54.5919C53.2434 14.389 52.4081 14.7947 52.0859 15.6062C51.9905 15.9165 51.9427 16.1313 51.9427 16.2506ZM56.9547 5.43914C57.0263 5.45107 57.79 6.2148 59.2458 7.73031V7.80191C59.2458 7.86157 58.4821 8.6253 56.9547 10.0931H56.8831C56.8234 10.0931 56.0597 9.32936 54.5919 7.80191C54.6038 7.73031 55.3914 6.94272 56.9547 5.43914Z"
	/>
	<path
		d="M71.5967 10.9881H71.6683V21.9427C71.6683 23.8162 70.7375 25.4391 68.8759 26.8115C67.8854 27.3365 66.9069 27.599 65.9403 27.599H61.6444V27.5274C63.7566 25.3317 64.8783 24.2339 65.0095 24.2339C66.6325 24.2339 67.7064 23.6134 68.2315 22.3723C68.327 21.9427 68.3747 21.6325 68.3747 21.4415V14.21C68.3747 14.1504 69.4487 13.0764 71.5967 10.9881Z"
	/>
	<path
		d="M88.4582 11.9547H88.9594C90.3198 11.9547 92.0382 13.315 94.1146 16.0358C94.6515 17.5632 95.5346 18.327 96.7637 18.327H97.3365C97.432 18.3389 97.4797 18.3866 97.4797 18.4702V21.6205C97.4797 21.716 97.432 21.7637 97.3365 21.7637H96.6921C95.8687 21.7637 94.9857 21.5728 94.043 21.1909C92.9093 22.957 91.5012 23.8401 89.8186 23.8401H89.1742C87.5274 23.8401 85.8568 22.7661 84.1623 20.6181L82.8735 19.401H82.5155C80.7017 19.6516 79.7947 20.5346 79.7947 22.0501V27.778C79.7947 27.8377 78.7208 28.9117 76.5728 31H76.5012V21.1909C76.5012 19.1384 77.6945 17.5155 80.0811 16.3222C80.7613 16.0835 81.5489 15.9642 82.4439 15.9642H83.0167C85.4988 13.4344 86.9069 12.1695 87.241 12.1695C87.6826 12.0263 88.0883 11.9547 88.4582 11.9547ZM85.8807 17.8974C87.5632 19.6635 88.6372 20.5465 89.1026 20.5465L89.4606 20.6181C90.7971 20.3795 91.4654 19.7589 91.4654 18.7566V18.6134C91.4654 17.8019 90.7971 16.8473 89.4606 15.7494C89.4606 15.6897 89.222 15.4511 88.7446 15.0334C88.6611 15.0453 87.7064 16 85.8807 17.8974Z"
	/>
	<path
		d="M96.5847 23.0167L98.7327 25.0931C98.7327 25.0334 99.4248 24.3413 100.809 23.0167C100.881 23.0286 101.644 23.7924 103.1 25.3079V25.3795C103.1 25.4391 102.337 26.2029 100.809 27.6706L98.6611 25.5943C98.6611 25.6539 97.969 26.3461 96.5847 27.6706C96.5251 27.6706 95.7613 26.9069 94.2936 25.3795V25.3079C94.3055 25.2363 95.0692 24.4726 96.5847 23.0167ZM104.854 11.2387H104.926V15.821C104.926 17.1098 105.809 17.9451 107.575 18.327H108.936C109.031 18.3389 109.079 18.3866 109.079 18.4702V21.5489C109.079 21.6444 109.031 21.6921 108.936 21.6921H107.002C105.666 21.6921 104.401 21.1671 103.208 20.1169C102.098 21.1671 100.928 21.6921 99.6993 21.6921H96.2625C96.1671 21.6921 96.1193 21.6444 96.1193 21.5489V18.4702C96.1313 18.3747 96.179 18.327 96.2625 18.327H98.3389C100.045 18.327 101.095 17.6587 101.489 16.3222L101.561 15.8926V14.5322C101.561 14.4726 102.659 13.3747 104.854 11.2387Z"
	/>
	<path
		d="M125.582 11.1671L125.654 11.3103V15.6062C125.654 16.8831 126.346 17.7661 127.73 18.2554C128.22 18.3031 128.601 18.327 128.876 18.327H129.663C129.759 18.3389 129.807 18.3866 129.807 18.4702V21.5489C129.807 21.6444 129.759 21.6921 129.663 21.6921H127.372C126.227 21.6921 125.129 21.1671 124.079 20.1169V20.0453H124.007C122.778 21.1432 121.489 21.6921 120.141 21.6921H107.181C107.086 21.6921 107.038 21.6444 107.038 21.5489V18.4702C107.05 18.3747 107.098 18.327 107.181 18.327H120.212C121.358 18.327 122.026 17.7542 122.217 16.6086V14.4606C122.575 14.031 123.697 12.9332 125.582 11.1671Z"
	/>
	<path
		d="M130.845 6.44153H130.916C130.988 6.45346 131.752 7.21718 133.208 8.7327V8.8043C133.208 8.86396 132.444 9.62768 130.916 11.0955C130.857 11.0955 130.069 10.3079 128.554 8.7327C128.566 8.6611 129.329 7.89737 130.845 6.44153ZM136.215 11.2387H136.286V16.3938C136.286 18.2196 135.284 19.7709 133.279 21.0477C132.432 21.4773 131.668 21.6921 130.988 21.6921H128.41C128.315 21.6921 128.267 21.6444 128.267 21.5489V18.4702C128.279 18.3747 128.327 18.327 128.41 18.327H130.773C132.205 18.327 132.921 17.6587 132.921 16.3222V14.389C134.174 13.136 135.272 12.0859 136.215 11.2387Z"
	/>
</svg>
