<svg viewBox="0 0 308 300.5">
	<path
		d="M36.5,224.2c0-1.9,0-3.6,0-5.4c0-24.4,1-16.8-15.7-32.5c-5-4.7-10.1-9.1-15.5-13.5c-3-2.4-3-4.6-1-7.5c6.5-9.6,13.1-19,19-29.1c1.9-3.3,2.5-6.9,2-10.6c-2.3-12.6-5.3-25.1-8.3-37.4c-1.2-4.7,0.2-6.3,4.7-7.7C33.5,77,45.1,73,56.7,69.6c4.8-1.3,6.7-4.1,7.4-8.8c1.4-9.7,3.5-19.4,5-29c0.8-4.5,2.6-6.6,7.4-6.3c12.6,0.4,25.3,1.1,37.8,0.8c4.6-0.2,8.9-1.6,12.7-4.2c8.2-5.4,16.1-11.2,23.7-17.4c4.4-3.5,7.5-3.3,11.5,0.1c9.1,7.4,18.4,14.9,28,21.8c3.3,2.2,7,3.5,10.9,3.6c10.6,0.4,21.2,0.7,31.8,0c6.5-0.3,9.4,1.6,10.3,8.3c1.3,9.7,3.8,19.2,5.4,28.8c0.8,4.7,3.2,7.4,7.3,9.4c10.3,4.7,20.6,9.8,31,14.5c3.6,1.6,4.6,3.9,3.7,7.5c-2.3,11.4-4.2,22.9-6.5,34.2c-1.1,4.4-0.3,8.9,2,12.6c5.6,9.7,10.3,19.9,15.7,29.6c2.2,3.7,1.3,6-1.5,8.8c-9.1,8.4-18.2,17-26.8,25.8c-2.2,2.5-3.5,5.7-3.6,8.9c-0.2,11.2,0,22.4,0.4,33.6c0.2,4.7-1.5,6.3-5.9,7.1c-13.1,2.1-26,4.5-39,6.3c-5,0.4-9.5,3.4-12.1,7.5c-4.8,7.1-10.3,13.7-15.3,20.8c-2.5,3.5-4.8,3.8-8.5,2.1c-9.6-4.9-19.6-9.3-29.2-14.1c-4.5-2.3-8.3-2.7-13.1-0.8c-10.2,4.6-20.8,8.4-31,12.8c-3.8,1.6-6.1,1.1-8.6-2.4c-6.7-9.1-14.1-17.8-20.9-27.1c-3.8-5.3-8.4-7.3-14.7-7.5c-9.6-0.3-19-1.6-28.7-2.2c-3.9-0.2-5.7-1.5-5.8-5.8c-0.2-8.4-0.9-16.8-1.3-25.1L36.5,224.2z"
		fill="#fff"
	/>
	<path
		d="M55.9,211.7c0-1.5,0-3,0-4.5c0-20.3,0.8-14-13.1-27.1c-4.2-3.9-8.4-7.6-12.9-11.2c-2.5-2-2.5-3.8-0.8-6.3c5.4-8,10.9-15.9,15.9-24.2c1.5-2.7,2.1-5.7,1.6-8.8c-1.9-10.5-4.4-20.9-6.9-31.2c-1-3.9,0.2-5.3,3.9-6.4c9.8-2.8,19.4-6.2,29.1-9c4-1.1,5.6-3.4,6.2-7.3c1.2-8.1,2.9-16.1,4.2-24.1c0.6-3.7,2.2-5.5,6.2-5.3c10.5,0.4,21,0.9,31.5,0.6c3.8-0.2,7.4-1.4,10.6-3.5c6.8-4.5,13.4-9.3,19.8-14.5c3.6-2.9,6.3-2.7,9.6,0.1c7.6,6.2,15.3,12.4,23.3,18.1c2.7,1.8,5.8,2.9,9.1,3c8.8,0.4,17.7,0.5,26.5,0c5.4-0.3,7.8,1.4,8.6,6.9c1.1,8.1,3.2,16,4.5,24c0.6,3.9,2.6,6.2,6.1,7.8c8.6,3.9,17.1,8.2,25.8,12.1c3,1.4,3.8,3.3,3.1,6.3c-1.9,9.5-3.5,19-5.4,28.5c-0.9,3.6-0.3,7.4,1.6,10.5c4.6,8.1,8.6,16.6,13.1,24.7c1.8,3.1,1.1,5-1.3,7.3c-7.6,7-15.1,14.1-22.3,21.5c-1.8,2.1-2.9,4.7-3,7.4c-0.2,9.3,0,18.7,0.4,28c0.2,3.9-1.3,5.3-4.9,5.9c-10.9,1.7-21.7,3.7-32.5,5.3c-4.2,0.4-7.9,2.8-10.1,6.3c-4,5.9-8.6,11.4-12.8,17.3c-2.1,2.9-4,3.2-7.1,1.7c-8-4.1-16.3-7.7-24.3-11.8c-3.7-1.9-6.9-2.3-10.9-0.6c-8.5,3.8-17.3,7-25.8,10.7c-3.2,1.4-5.1,0.9-7.2-2c-5.6-7.6-11.8-14.9-17.4-22.6c-3.2-4.4-7-6.1-12.2-6.3c-8-0.3-15.9-1.4-23.9-1.8c-3.3-0.2-4.7-1.3-4.8-4.8c-0.2-7-0.7-14-1.1-20.9L55.9,211.7z"
		fill="#54acff"
	/>
	<path
		d="M138,171.4l45.8-51.6c3.1-3.5,6.4-6.9,9.3-10.6c2.4-3,4.6-3.6,7.6-0.7c3.3,3.3,6.9,6.4,10.5,9.4c3.4,2.8,3.8,5.2,0.8,8.7c-22,25.6-43.8,51.3-65.6,77.1c-3.7,4.4-6.2,4.3-10.4,0.8c-13.6-11.4-27.4-22.6-41.4-33.7c-4.1-3.2-4.2-5.9-0.8-9.5c1.9-2.2,3.7-4.4,5.3-6.8c5.8-7.6,5.8-7.6,13.7-1.7c6.5,4.9,13.1,9.8,19.7,14.7C134.1,168.9,135.9,169.9,138,171.4z"
		fill="#fff"
	/>
</svg>
