<svg viewBox="0 0 48 48" fill="currentColor">
	<path
		d="M17,42.5c-0.4,0-0.8-0.1-1.1-0.4l-10-10c-0.6-0.6-0.6-1.5,0-2.1s1.5-0.6,2.1,0l10,10c0.6,0.6,0.6,1.5,0,2.1C17.8,42.4,17.4,42.5,17,42.5z"
	/>
	<path
		d="M12,37.5c-0.4,0-0.8-0.1-1.1-0.4c-0.6-0.6-0.6-1.5,0-2.1l22-22c0.6-0.6,1.5-0.6,2.1,0c0.6,0.6,0.6,1.5,0,2.1l-22,22C12.8,37.4,12.4,37.5,12,37.5z"
	/>
	<path
		d="M39,20.5c-0.4,0-0.8-0.1-1.1-0.4l-10-10c-0.6-0.6-0.6-1.5,0-2.1c0.6-0.6,1.5-0.6,2.1,0l10,10c0.6,0.6,0.6,1.5,0,2.1C39.8,20.4,39.4,20.5,39,20.5z"
	/>
	<path
		d="M3,46.5c-0.4,0-0.8-0.2-1.1-0.4c-0.4-0.4-0.5-0.9-0.4-1.5l4-14c0.1-0.2,0.2-0.5,0.4-0.6L33.1,2.8c0.8-0.9,2-1.3,3.2-1.3c0,0,0,0,0,0c1.2,0,2.3,0.5,3.2,1.3l5.8,5.8c0.9,0.8,1.3,2,1.3,3.2s-0.5,2.3-1.3,3.2L18.1,42.1c-0.2,0.2-0.4,0.3-0.6,0.4l-14,4C3.3,46.5,3.1,46.5,3,46.5z
						M8.3,31.8l-3.2,11l11-3.2l26.8-26.8c0.3-0.3,0.4-0.7,0.4-1.1c0-0.4-0.2-0.8-0.4-1.1l-5.8-5.8c-0.6-0.6-1.6-0.6-2.1,0L8.3,31.8z
						M17,41L17,41L17,41z"
	/>
</svg>
