<svg viewBox="-273 396.9 48 48" fill="currentColor">
	<path
		d="M-265,420.4c-0.5,0-1-0.3-1.3-0.8c-0.4-0.7-0.1-1.6,0.6-2l25.7-14.3c0.7-0.4,1.6-0.1,2,0.6c0.4,0.7,0.1,1.6-0.6,2l-25.7,14.3C-264.5,420.3-264.7,420.4-265,420.4z"
	/>
	<path
		d="M-247,438.4c-0.2,0-0.5-0.1-0.7-0.2c-0.7-0.4-1-1.3-0.6-2l14.3-25.7c0.4-0.7,1.3-1,2-0.6c0.7,0.4,1,1.3,0.6,2l-14.3,25.7C-246,438.1-246.5,438.4-247,438.4z"
	/>
	<path
		d="M-229,416.4c-0.4,0-0.8-0.1-1.1-0.4l-14-14c-0.6-0.6-0.6-1.5,0-2.1c0.6-0.6,1.5-0.6,2.1,0l14,14c0.6,0.6,0.6,1.5,0,2.1C-228.2,416.2-228.6,416.4-229,416.4z"
	/>
	<path
		d="M-269,442.4c-0.4,0-0.8-0.1-1.1-0.4c-0.6-0.6-0.6-1.5,0-2.1l9-9c0.6-0.6,1.5-0.6,2.1,0s0.6,1.5,0,2.1l-9,9C-268.2,442.2-268.6,442.4-269,442.4z"
	/>
	<path
		d="M-243,442.4c-0.4,0-0.8-0.1-1.1-0.4l-26-26c-0.6-0.6-0.6-1.5,0-2.1c0.6-0.6,1.5-0.6,2.1,0l26,26c0.6,0.6,0.6,1.5,0,2.1C-242.2,442.2-242.6,442.4-243,442.4z"
	/>
</svg>
