<svg fill="currentColor" viewBox="0 0 24 24">
	<path
		d="m16.929 24h-14.239c-1.483 0-2.69-1.207-2.69-2.69v-18.62c0-1.483 1.207-2.69 2.69-2.69h18.62c1.483 0 2.69 1.207 2.69 2.69v14.238c0 .276-.224.5-.5.5s-.5-.224-.5-.5v-14.238c0-.932-.758-1.69-1.69-1.69h-18.62c-.932 0-1.69.758-1.69 1.69v18.62c0 .931.758 1.69 1.69 1.69h14.238c.276 0 .5.224.5.5s-.223.5-.499.5z"
	/>
	<path
		d="m16.929 24c-.064 0-.129-.013-.191-.038-.187-.077-.309-.26-.309-.462v-4.381c0-1.483 1.207-2.69 2.69-2.69h4.381c.202 0 .385.122.462.309.078.187.035.402-.108.545l-6.571 6.571c-.096.095-.224.146-.354.146zm2.19-6.571c-.932 0-1.69.759-1.69 1.69v3.174l4.864-4.864z"
	/>
	<path
		d="m9.955 17.954c-.132 0-.26-.053-.354-.146l-5.455-5.454c-.195-.195-.195-.512 0-.707s.512-.195.707 0l5.077 5.076 9.193-10.506c.182-.209.498-.229.706-.047s.229.498.047.706l-9.545 10.909c-.091.104-.222.166-.36.171-.005-.002-.011-.002-.016-.002z"
	/>
</svg>
