<svg viewBox="-273 396.9 48 48" fill="currentColor">
	<path
		d="M-228,438.4c-0.5,0-1-0.3-1.3-0.7c-4.9-8.3-8.7-11.1-22.2-11.3v8.5c0,0.6-0.4,1.2-0.9,1.4c-0.6,0.2-1.2,0.1-1.6-0.3l-16-16c-0.6-0.6-0.6-1.5,0-2.1l16-16c0.4-0.4,1.1-0.6,1.6-0.3c0.6,0.2,0.9,0.8,0.9,1.4v8.5c15.9,0.5,25,9.8,25,25.5c0,0.7-0.5,1.3-1.1,1.4C-227.7,438.4-227.9,438.4-228,438.4z
						M-253,423.4c12.2,0,18.1,1.8,23.1,8c-2.3-13.9-13.5-17-23.1-17c-0.8,0-1.5-0.7-1.5-1.5v-6.4l-12.4,12.4l12.4,12.4v-6.4C-254.5,424.1-253.8,423.4-253,423.4z"
	/>
</svg>
