<svg fill="currentColor" viewBox="0 0 20.1 20.1">
	<g transform="translate(0.25 0.25)">
		<path
			d="M16.5,15.4c-0.3-0.3-0.8-0.3-1.1,0c-0.3,0.3-0.3,0.8,0,1.1l2.8,2.8c0.3,0.3,0.8,0.3,1.1,0c0.3-0.3,0.3-0.8,0-1.1L16.5,15.4z"
		/>
		<path
			d="M18.7,19.7c-0.3,0-0.5-0.1-0.7-0.3l-2.8-2.8c-0.4-0.4-0.4-1,0-1.4c0.2-0.2,0.4-0.3,0.7-0.3c0.3,0,0.5,0.1,0.7,0.3l2.8,2.8c0.4,0.4,0.4,1,0,1.4C19.3,19.6,19,19.7,18.7,19.7C18.7,19.7,18.7,19.7,18.7,19.7z
							M15.9,15.4c-0.1,0-0.3,0.1-0.4,0.2c-0.2,0.2-0.2,0.5,0,0.7l2.8,2.8c0.1,0.1,0.2,0.2,0.4,0.1c0.1,0,0.3-0.1,0.4-0.2c0.2-0.2,0.2-0.5,0-0.7l-2.8-2.8C16.2,15.4,16.1,15.4,15.9,15.4z"
		/>
		<path
			d="M8.6,0C3.8,0,0,3.8,0,8.6s3.8,8.6,8.6,8.6s8.6-3.8,8.6-8.6l0,0C17.2,3.8,13.3,0,8.6,0zM8.6,16.1C4.4,16.1,1,12.8,1,8.6S4.4,1,8.6,1s7.6,3.4,7.6,7.6S12.8,16.1,8.6,16.1L8.6,16.1z"
		/>
		<path
			d="M8.6,17.4c-4.9,0-8.8-4-8.8-8.8s4-8.8,8.8-8.8s8.8,4,8.8,8.8S13.4,17.4,8.6,17.4z
							M8.6,0.3C4,0.3,0.3,4,0.3,8.6s3.7,8.3,8.3,8.3s8.3-3.7,8.3-8.3S13.2,0.3,8.6,0.3z
							M8.6,16.4c-4.3,0-7.8-3.5-7.8-7.8s3.5-7.8,7.8-7.8s7.8,3.5,7.8,7.8S12.9,16.4,8.6,16.4z
							M8.6,1.3c-4,0-7.3,3.3-7.3,7.3s3.3,7.3,7.3,7.3s7.3-3.3,7.3-7.3S12.6,1.3,8.6,1.3z"
		/>
		<path
			d="M8.6,3C5.5,3,3,5.5,3,8.6c0,0.3,0.2,0.5,0.5,0.5C3.8,9.1,4,8.9,4,8.6C4,6.1,6.1,4,8.6,4c0.3,0,0.5-0.2,0.5-0.5C9.1,3.3,8.9,3,8.6,3z"
		/>
		<path
			d="M3.5,9.3C3.1,9.3,2.8,9,2.8,8.6c0-3.2,2.6-5.8,5.8-5.8h0c0.4,0,0.8,0.3,0.8,0.8S9,4.3,8.6,4.3c-2.4,0-4.3,1.9-4.3,4.3C4.3,9,3.9,9.3,3.5,9.3z
							M8.6,3.3c-2.9,0-5.3,2.4-5.3,5.3c0,0.1,0.1,0.3,0.3,0.3c0.1,0,0.3-0.1,0.3-0.3c0-2.6,2.2-4.8,4.8-4.8c0.1,0,0.3-0.1,0.3-0.3C8.8,3.4,8.7,3.3,8.6,3.3L8.6,3.3z"
		/>
	</g>
</svg>
