<svg viewBox="0 0 48 48" fill="currentColor">
	<path
		d="M21.6,47.5c-2.1,0-4.2-1.3-5-3.4L9.1,25.9c-0.3-0.8,0.1-1.6,0.8-2c0.8-0.3,1.6,0.1,2,0.8L19.3,43c0.5,1.2,1.9,1.8,3.1,1.3c1.2-0.5,1.8-1.9,1.3-3.1L18.9,29c-0.3-0.8,0.1-1.6,0.8-2c0.8-0.3,1.6,0.1,2,0.8l4.9,12.2c1.1,2.8-0.2,5.9-3,7C22.9,47.4,22.2,47.5,21.6,47.5z"
	/>
	<path
		d="M38,35.5c-5.3,0-9.5-7.7-9.5-17.5c0-9.8,4.2-17.5,9.5-17.5s9.5,7.7,9.5,17.5C47.5,27.8,43.3,35.5,38,35.5zM38,3.5c-3.1,0-6.5,6-6.5,14.5s3.4,14.5,6.5,14.5s6.5-6,6.5-14.5S41.1,3.5,38,3.5z"
	/>
	<path
		d="M36.4,35.2c-0.2,0-0.3,0-0.5-0.1l-30-9.7c-3.3-0.9-5.6-4-5.4-7.5c0-3.4,1.9-6,5.4-7.1l29.9-9.9c0.8-0.3,1.6,0.2,1.9,1c0.3,0.8-0.2,1.6-1,1.9L6.9,13.7c-2.3,0.7-3.4,2.1-3.4,4.3c-0.1,2.2,1.3,4,3.3,4.6l30.1,9.7c0.8,0.3,1.2,1.1,1,1.9C37.6,34.8,37,35.2,36.4,35.2z"
	/>
	<path
		d="M36,24.5c-0.8,0-1.5-0.7-1.5-1.5s0.7-1.5,1.5-1.5c1.9,0,3.5-1.6,3.5-3.5s-1.6-3.5-3.5-3.5c-0.8,0-1.5-0.7-1.5-1.5s0.7-1.5,1.5-1.5c3.6,0,6.5,2.9,6.5,6.5S39.6,24.5,36,24.5z"
	/>
</svg>
