<svg viewBox="-273 396.9 48 48" fill="currentColor">
	<path
		d="M-259,421.4c-1.9,0-3.5-1.6-3.5-3.5s1.6-3.5,3.5-3.5s3.5,1.6,3.5,3.5S-257.1,421.4-259,421.4z
					M-259,417.4c-0.3,0-0.5,0.2-0.5,0.5s0.2,0.5,0.5,0.5s0.5-0.2,0.5-0.5S-258.7,417.4-259,417.4z"
	/>
	<path
		d="M-249,443.4c-12.4,0-22.5-10.1-22.5-22.5s10.1-22.5,22.5-22.5c12.4,0,22.5,10.1,22.5,22.5S-236.6,443.4-249,443.4z
					M-249,401.4c-10.8,0-19.5,8.7-19.5,19.5s8.7,19.5,19.5,19.5c10.8,0,19.5-8.7,19.5-19.5S-238.2,401.4-249,401.4z"
	/>
	<path
		d="M-237,420.4c-0.4,0-0.7-0.1-1-0.4c-1.4-1.3-3.6-1.6-5.3-0.8c-0.7,0.4-1.6,0.1-2-0.7s-0.1-1.6,0.7-2c2.9-1.5,6.4-1,8.7,1.2c0.6,0.6,0.6,1.5,0.1,2.1C-236.2,420.2-236.6,420.4-237,420.4z"
	/>
	<path
		d="M-249,437.4c-6.3,0-11.5-5.2-11.5-11.5c0-0.8,0.7-1.5,1.5-1.5h20c0.8,0,1.5,0.7,1.5,1.5C-237.5,432.2-242.7,437.4-249,437.4z
					M-257.4,427.4c0.7,4,4.2,7,8.4,7c4.2,0,7.7-3,8.4-7H-257.4z"
	/>
	<circle cx="-259" cy="417.9" r="2" />
</svg>
