<svg viewBox="0 0 48 48" fill="currentColor">
	<path
		d="M38,47.5H28c-0.8,0-1.5-0.7-1.5-1.5s0.7-1.5,1.5-1.5h10c2.5,0,4.5-2,4.5-4.5v-6c0-0.8,0.7-1.5,1.5-1.5s1.5,0.7,1.5,1.5v6C45.5,44.1,42.1,47.5,38,47.5z"
	/>
	<path
		d="M14,39.5H8c-3,0-5.5-2.5-5.5-5.5V24c0-0.8,0.7-1.5,1.5-1.5h10c0.8,0,1.5,0.7,1.5,1.5v14C15.5,38.8,14.8,39.5,14,39.5z
					M5.5,25.5V34c0,1.4,1.1,2.5,2.5,2.5h4.5v-11H5.5z"
	/>
	<path
		d="M40,39.5h-6c-0.8,0-1.5-0.7-1.5-1.5V24c0-0.8,0.7-1.5,1.5-1.5h10c0.8,0,1.5,0.7,1.5,1.5v10C45.5,37,43,39.5,40,39.5z
					M35.5,36.5H40c1.4,0,2.5-1.1,2.5-2.5v-8.5h-7V36.5z"
	/>
	<path
		d="M44,25.5c-0.8,0-1.5-0.7-1.5-1.5v-2c0-10.2-8.3-18.5-18.5-18.5S5.5,11.8,5.5,22v2c0,0.8-0.7,1.5-1.5,1.5S2.5,24.8,2.5,24v-2C2.5,10.1,12.1,0.5,24,0.5c11.9,0,21.5,9.6,21.5,21.5v2C45.5,24.8,44.8,25.5,44,25.5z"
	/>
</svg>
