<svg viewBox="-273 396.9 48 48" fill="currentColor">
	<path
		d="M-245,442.4c-0.3,0-0.6-0.1-0.9-0.3l-15.6-11.7h-9.5c-0.8,0-1.5-0.7-1.5-1.5v-16c0-0.8,0.7-1.5,1.5-1.5h9.5l15.6-11.7c0.5-0.3,1.1-0.4,1.6-0.1c0.5,0.3,0.8,0.8,0.8,1.3v40c0,0.6-0.3,1.1-0.8,1.3C-244.5,442.3-244.8,442.4-245,442.4z
						M-269.5,427.4h8.5c0.3,0,0.6,0.1,0.9,0.3l13.6,10.2v-34l-13.6,10.2c-0.3,0.2-0.6,0.3-0.9,0.3h-8.5V427.4z"
	/>
	<path
		d="M-227,422.4h-8c-0.8,0-1.5-0.7-1.5-1.5s0.7-1.5,1.5-1.5h8c0.8,0,1.5,0.7,1.5,1.5S-226.2,422.4-227,422.4z"
	/>
	<path
		d="M-237.7,412.4c-0.5,0-1-0.3-1.3-0.7c-0.4-0.7-0.2-1.6,0.5-2.1l6.9-4c0.7-0.4,1.6-0.2,2,0.5c0.4,0.7,0.2,1.6-0.5,2.1l-6.9,4C-237.2,412.3-237.4,412.4-237.7,412.4z"
	/>
	<path
		d="M-230.8,436.4c-0.3,0-0.5-0.1-0.8-0.2l-6.9-4c-0.7-0.4-1-1.3-0.5-2c0.4-0.7,1.3-1,2-0.5l6.9,4c0.7,0.4,1,1.3,0.5,2C-229.8,436.1-230.3,436.4-230.8,436.4z"
	/>
</svg>
