<svg viewBox="0 0 48 48" fill="currentColor">
	<path
		d="M44.7,20c-0.4,0-0.8-0.1-1.1-0.4l-14-14c-0.6-0.6-0.6-1.5,0-2.1c0.6-0.6,1.5-0.6,2.1,0l14,14c0.6,0.6,0.6,1.5,0,2.1C45.5,19.9,45.1,20,44.7,20z"
	/>
	<path
		d="M4.7,46c-0.4,0-0.8-0.1-1.1-0.4c-0.6-0.6-0.6-1.5,0-2.1l9-9c0.6-0.6,1.5-0.6,2.1,0s0.6,1.5,0,2.1l-9,9C5.5,45.9,5.1,46,4.7,46z"
	/>
	<path
		d="M30.7,46c-0.4,0-0.8-0.1-1.1-0.4l-26-26c-0.6-0.6-0.6-1.5,0-2.1c0.6-0.6,1.5-0.6,2.1,0l26,26c0.6,0.6,0.6,1.5,0,2.1C31.5,45.9,31.1,46,30.7,46z"
	/>
	<path
		d="M38.3,36.5L12.6,10.7c-0.6-0.6-0.6-1.6,0-2.2l0,0c0.6-0.6,1.6-0.6,2.2,0l25.8,25.8c0.6,0.6,0.6,1.6,0,2.2l0,0C39.9,37.1,39,37.1,38.3,36.5z"
	/>
	<polygon points="39.2,14.8 34.2,23.7 36.4,25.9 41.4,17.1 " />
	<polygon points="34.3,9.9 25.4,14.9 23.2,12.6 32.1,7.7 " />
	<polygon points="28.4,40.1 31.7,34.1 29.5,31.9 26.2,37.9 " />
	<polygon points="11.1,22.9 17.1,19.5 14.9,17.3 8.8,20.7 " />
</svg>
