<svg viewBox="0 0 48 48" fill="currentColor">
	<path
		d="M30,43.5H2c-0.8,0-1.5-0.7-1.5-1.5v-5c0-1.9,1.1-3.5,2.8-4.2l7-2.8c0.2-0.1,0.3-0.2,0.3-0.4l0.4-2.5c-2.8-1.7-4.5-4.8-4.5-8.1v-5.2c0.2-3.2,2.1-6,5-7.2L17,4.6c1.1-0.4,2.3,0.1,2.8,1.1l0.8,1.5c2.8,0.5,4.9,2.9,4.9,5.8V19c0,3.3-1.8,6.4-4.5,8.1l0.4,2.5c0,0.2,0.1,0.3,0.3,0.4l7,2.8c1.7,0.7,2.8,2.3,2.8,4.2v5C31.5,42.8,30.8,43.5,30,43.5z
					M3.5,40.5h25V37c0-0.6-0.4-1.2-0.9-1.4c0,0,0,0,0,0l-7-2.8c-1.2-0.5-2-1.5-2.2-2.8l-0.5-3.6c-0.1-0.7,0.3-1.3,0.9-1.6c2.3-1.1,3.8-3.4,3.8-5.9v-5.9c0-1.6-1.3-2.9-2.9-2.9c-0.6,0-1.1-0.3-1.3-0.8l-0.9-1.7l-4.8,1.7c-1.8,0.7-3,2.5-3.1,4.5l0,5.1c0,2.5,1.5,4.9,3.8,5.9c0.6,0.3,1,0.9,0.9,1.6l-0.5,3.6c-0.2,1.2-1,2.3-2.2,2.8l-7,2.8c-0.6,0.2-0.9,0.8-0.9,1.4V40.5z"
	/>
	<path
		d="M46,43.5H36c-0.8,0-1.5-0.7-1.5-1.5s0.7-1.5,1.5-1.5h8.5v-5.4c0-0.6-0.4-1.2-1-1.4l-7.9-2.9c-1.2-0.4-2.1-1.5-2.3-2.8l-0.5-3.5c-0.1-0.7,0.3-1.3,0.9-1.6c2.3-1.1,3.8-3.4,3.8-5.9v-5.9c0-1.6-1.3-2.9-2.9-2.9c-0.6,0-1.1-0.3-1.3-0.8l-0.9-1.7l-4.8,1.7c-0.8,0.3-1.6-0.1-1.9-0.9c-0.3-0.8,0.1-1.6,0.9-1.9L32,2.6c1.1-0.4,2.3,0.1,2.8,1.1l0.8,1.5c2.8,0.5,4.9,2.9,4.9,5.8V17c0,3.3-1.8,6.4-4.5,8.1l0.4,2.5c0,0.2,0.2,0.3,0.3,0.4l7.9,2.9c1.8,0.6,3,2.3,3,4.2V42C47.5,42.8,46.8,43.5,46,43.5z"
	/>
</svg>
