<svg viewBox="0 0 48 48" fill="currentColor">
	<path
		d="M7,19.5H2c-0.8,0-1.5-0.7-1.5-1.5s0.7-1.5,1.5-1.5h5c0.8,0,1.5,0.7,1.5,1.5S7.8,19.5,7,19.5z"
	/>
	<path
		d="M18,19.5h-3c-0.8,0-1.5-0.7-1.5-1.5s0.7-1.5,1.5-1.5h3c0.8,0,1.5,0.7,1.5,1.5S18.8,19.5,18,19.5z"
	/>
	<path
		d="M29,19.5h-3c-0.8,0-1.5-0.7-1.5-1.5s0.7-1.5,1.5-1.5h3c0.8,0,1.5,0.7,1.5,1.5S29.8,19.5,29,19.5z"
	/>
	<path
		d="M42,19.5h-5c-0.8,0-1.5-0.7-1.5-1.5s0.7-1.5,1.5-1.5h5c0.8,0,1.5,0.7,1.5,1.5S42.8,19.5,42,19.5z"
	/>
	<path
		d="M7,39.5H2c-0.8,0-1.5-0.7-1.5-1.5s0.7-1.5,1.5-1.5h5c0.8,0,1.5,0.7,1.5,1.5S7.8,39.5,7,39.5z"
	/>
	<path
		d="M18,39.5h-3c-0.8,0-1.5-0.7-1.5-1.5s0.7-1.5,1.5-1.5h3c0.8,0,1.5,0.7,1.5,1.5S18.8,39.5,18,39.5z"
	/>
	<path
		d="M29,39.5h-3c-0.8,0-1.5-0.7-1.5-1.5s0.7-1.5,1.5-1.5h3c0.8,0,1.5,0.7,1.5,1.5S29.8,39.5,29,39.5z"
	/>
	<path
		d="M42,39.5h-5c-0.8,0-1.5-0.7-1.5-1.5s0.7-1.5,1.5-1.5h5c0.8,0,1.5,0.7,1.5,1.5S42.8,39.5,42,39.5z"
	/>
	<path
		d="M42,45.5H8c-4.1,0-7.5-3.4-7.5-7.5V8c0-0.8,0.7-1.5,1.5-1.5S3.5,7.2,3.5,8c0,1.4,1.1,2.5,2.5,2.5h36c0.8,0,1.5,0.7,1.5,1.5v12c0,0.8-0.7,1.5-1.5,1.5s-1.5-0.7-1.5-1.5V13.5H6c-0.9,0-1.7-0.2-2.5-0.6V38c0,2.5,2,4.5,4.5,4.5h32.5V32c0-0.8,0.7-1.5,1.5-1.5s1.5,0.7,1.5,1.5v12C43.5,44.8,42.8,45.5,42,45.5z"
	/>
	<path
		d="M6,13.5C3,13.5,0.5,11,0.5,8S3,2.5,6,2.5h28c0.8,0,1.5,0.7,1.5,1.5v3c0,0.8-0.7,1.5-1.5,1.5S32.5,7.8,32.5,7V5.5H6C4.6,5.5,3.5,6.6,3.5,8s1.1,2.5,2.5,2.5c0.8,0,1.5,0.7,1.5,1.5S6.8,13.5,6,13.5z"
	/>
	<path
		d="M46,33.5h-9c-3,0-5.5-2.5-5.5-5.5s2.5-5.5,5.5-5.5h9c0.8,0,1.5,0.7,1.5,1.5v8C47.5,32.8,46.8,33.5,46,33.5zM37,25.5c-1.4,0-2.5,1.1-2.5,2.5s1.1,2.5,2.5,2.5h7.5v-5H37z"
	/>
</svg>
