<svg viewBox="0 0 21.949 21.949" fill="currentColor">
	<path
		d="M8.014,22.005a.53.53,0,0,1-.374-.14.691.691,0,0,1-.187-.981l.887-1.354a.726.726,0,0,1,.374-.28,1.581,1.581,0,0,0,.374-.14,2.189,2.189,0,0,0-.374-1.4.664.664,0,0,1-.093-.28,2.826,2.826,0,0,0-.093-.7,2.285,2.285,0,0,0-.607-.374.421.421,0,0,1-.28-.28A7.467,7.467,0,0,1,6.8,13.6a1.863,1.863,0,0,1,1.728-1.915,1.3,1.3,0,0,0,.747-.56A.594.594,0,0,1,9.7,10.8a2.9,2.9,0,0,0,.747-.327,6.645,6.645,0,0,0-.28-1.308.512.512,0,0,1,0-.374,1.355,1.355,0,0,0,0-.747,1.971,1.971,0,0,0-.467-.56.838.838,0,0,1-.233-.327,4.1,4.1,0,0,0-.934-1.4.7.7,0,0,1,.841-1.121,4.775,4.775,0,0,1,1.308,1.821,2.968,2.968,0,0,1,.841,1.074,2.821,2.821,0,0,1,.093,1.354,3.18,3.18,0,0,1,.14,2.242,2.586,2.586,0,0,1-1.4.934,2.455,2.455,0,0,1-1.588.981H8.715a.477.477,0,0,0-.467.514,4.051,4.051,0,0,0,.607,1.541,2.231,2.231,0,0,1,1.074.981,2.662,2.662,0,0,1,.187,1.027,3.214,3.214,0,0,1,.28,2.709,1.99,1.99,0,0,1-.934.7l-.794,1.167A.981.981,0,0,1,8.014,22.005Zm1.167-2.942Z"
		transform="translate(-3.858 -2.625)"
	/>
	<path
		d="M25.161,8.019h-.187a4.108,4.108,0,0,1-2.1-1.261.7.7,0,0,1-.187-.514V5.264a1.381,1.381,0,0,1-1.308-.233,1.621,1.621,0,0,1-.514-1.448,1.536,1.536,0,0,1-.934-.841A2.044,2.044,0,0,1,20.257,1.2a.789.789,0,0,0,.093-.233.675.675,0,0,1,.887-.42.74.74,0,0,1,.467.887,1.659,1.659,0,0,1-.187.42,1.224,1.224,0,0,0-.233.42,2.021,2.021,0,0,0,.56.233.668.668,0,0,1,.467.841,1.23,1.23,0,0,0-.047.56.866.866,0,0,0,.327-.093,1.683,1.683,0,0,1,.841-.047c.467.14.7.56.7,2.195a2.392,2.392,0,0,0,1.074.654A3.735,3.735,0,0,0,26.7,5.544a1.017,1.017,0,0,1,.374-.233,13.449,13.449,0,0,0,2.568-.841.7.7,0,0,1,.607,1.261,16,16,0,0,1-2.662.887A4.12,4.12,0,0,1,25.161,8.019Zm-3.923-5.6Z"
		transform="translate(-10.824 -0.5)"
	/>
	<path
		d="M23.375,29.1A1.028,1.028,0,0,1,23,29.057a1.435,1.435,0,0,1-.981-.981,3.9,3.9,0,0,1,.327-3.222,3.468,3.468,0,0,0-.093-1.167c-.047-.14-.047-.327-.093-.42l-.42-.42c-.42-.42-.841-.794-.841-1.308,0-.794.981-2.055,1.541-2.8a.838.838,0,0,1,.327-.233,4.922,4.922,0,0,1,1.868-.327,4.545,4.545,0,0,1,1.074.514,7.9,7.9,0,0,1,1.915.42c.047.047.093.047.14.093l.56.514c1.214.467,1.961.981,2.148,1.494h0a3.155,3.155,0,0,1-1.308,3.129A3.023,3.023,0,0,0,28,25.227c0,.047-.093.187-.14.327-.233.607-.56,1.541-1.354,1.868a5.661,5.661,0,0,0-.747.467A4.04,4.04,0,0,1,23.375,29.1ZM22.3,21.445l.374.374c.42.42.794.747.841,1.214,0,.093.047.187.047.374a2.968,2.968,0,0,1-.093,2.195,2.385,2.385,0,0,0-.093,2.1,7.105,7.105,0,0,0,1.588-.887,11.347,11.347,0,0,1,1.027-.654c.187-.093.467-.794.56-1.027a2.415,2.415,0,0,1,.28-.607,4.458,4.458,0,0,1,1.728-1.4,2.638,2.638,0,0,0,.654-1.354,4.449,4.449,0,0,0-1.494-.794,1.021,1.021,0,0,1-.233-.14h0l-.607-.56A6.088,6.088,0,0,0,25.383,20a.866.866,0,0,1-.327-.093,4.512,4.512,0,0,0-.794-.42h0a5.06,5.06,0,0,0-.934.233C22.908,20.417,22.441,21.118,22.3,21.445Zm-.14,1.728Zm7.1-1.308Zm-.047-.047Zm-6.958-.467Z"
		transform="translate(-11.373 -9.91)"
	/>
	<path
		d="M11.474,22.449A10.974,10.974,0,1,1,22.449,11.474,10.962,10.962,0,0,1,11.474,22.449Zm0-20.548a9.573,9.573,0,1,0,9.573,9.573A9.586,9.586,0,0,0,11.474,1.9Z"
		transform="translate(-0.5 -0.5)"
	/>
</svg>
